<svg xmlns="http://www.w3.org/2000/svg" width="429.446" height="566.154" viewBox="0 0 429.446 566.154">
  <g id="_1Vector_Floral_Ornaments" data-name="1Vector_Floral_Ornaments" transform="translate(433.222 31.86) rotate(99)" opacity="0.12">
    <path id="Path_39" data-name="Path 39" d="M0,0A55.843,55.843,0,0,0,5.939,23.955c5.555,12.475,20.3,18.568,21.716,18.487,3.2.554,5.946-1.281,6.134-4.033s-1.538-5.329-3.867-5.692c-.991-.138-12.479-1.753-19.8-11.487C2.513,12.165-.047-.13,0,0Z" transform="translate(522.653 150.252)" fill="#fff"/>
    <path id="Path_40" data-name="Path 40" d="M.017,0A28.545,28.545,0,0,0,4.532,14.16C8.645,21,16.347,24.936,17.09,25.23c1.707.664,3.43.126,3.845-1.188a2.894,2.894,0,0,0-1.89-3.4c-.647-.3-7.754-2.474-12.523-7.984A27.809,27.809,0,0,1,.017,0Z" transform="translate(523.951 145.43)" fill="#fff"/>
    <path id="Path_41" data-name="Path 41" d="M.012,0A20.074,20.074,0,0,0,2.745,9.814a21.244,21.244,0,0,0,8.526,7.895,2.125,2.125,0,0,0,2.887-1.449c.414-1.316.007-2.727-.914-3.135-.412-.206-5.2-1.27-8.51-4.816A19.329,19.329,0,0,1,.012,0Z" transform="translate(525.818 140.182)" fill="#fff"/>
    <path id="Path_42" data-name="Path 42" d="M50.428,3.716c.168-.034-10.474,6.12-21.863,5.732C16.953,9.618,8.868,1.58,8.1.961,6.348-.572,3.3-.229,1.322,1.689S-.386,6.828,1.962,8.84c.79.954,14.069,8.784,27.063,5.578A47.2,47.2,0,0,0,50.428,3.716Z" transform="translate(340.479 90.296)" fill="#fff"/>
    <path id="Path_43" data-name="Path 43" d="M32.765,1.471a27.242,27.242,0,0,1-14.088,3.4C11.249,4.764,4.816.7,4.147.4a2.934,2.934,0,0,0-3.872.77C-.445,2.345.3,4.011,1.942,4.877c.726.373,8.83,3.728,16.865,2.489A28.02,28.02,0,0,0,32.765,1.471Z" transform="translate(360.823 88.303)" fill="#fff"/>
    <path id="Path_44" data-name="Path 44" d="M22.342,1.687a18.947,18.947,0,0,1-9.547,1.9C7.853,3.325,3.819.322,3.376.144A2.582,2.582,0,0,0,.369,1.484a2.146,2.146,0,0,0,.824,3.15c.5.245,6.174,2.531,11.734,1.444A19.7,19.7,0,0,0,22.342,1.687Z" transform="translate(373.866 83.142)" fill="#fff"/>
    <path id="Path_45" data-name="Path 45" d="M0,0C-.121-.112,7.54,8.6,9.68,19.179c2.6,11.209-6.417,17.979-7.108,18.442a4.393,4.393,0,0,0-1.156,5.649c1.1,1.752,3.866,1.74,6.147-.067,1.04-.024,11.319-12.787,5.721-25.036C8.855,6.9-.135.013,0,0Z" transform="translate(421.73 247.359)" fill="#fff"/>
    <path id="Path_46" data-name="Path 46" d="M0,0C-.08-.074,5.71,4.668,8.239,10.938A11.324,11.324,0,0,1,6.585,22.675c-.758,1.028-.077,3,1.469,4.375a3.245,3.245,0,0,0,4.919-.467c.783-.251,4.369-10.892-1.476-17.491A32.587,32.587,0,0,0,0,0Z" transform="translate(431.576 257.725)" fill="#fff"/>
    <path id="Path_47" data-name="Path 47" d="M0,0A20.924,20.924,0,0,1,6.874,5.81a7.415,7.415,0,0,1,.642,7.741c-.332.768.409,1.936,1.617,2.6a2.153,2.153,0,0,0,3.118-1.011c.466-.275,1.192-7.646-3.535-11.015A21.411,21.411,0,0,0,0,0Z" transform="translate(440.764 263.631)" fill="#fff"/>
    <path id="Path_48" data-name="Path 48" d="M0,0A11.486,11.486,0,0,0,6.242,5.988c4.723,1.81,9.683-.246,10.048-.4,1.007-.454,1.24-1.791.529-2.972s-1.9-1.881-2.643-1.551c-.362.121-3.536,2.776-7.36,2.493C2.935,3.405-.113-.029,0,0Z" transform="translate(437.328 257.309)" fill="#fff"/>
    <path id="Path_49" data-name="Path 49" d="M10.932,50.1a59.854,59.854,0,0,0,7.46-23.042C20.736,13.448,9.186,1,7.656.872,4.829-.783,1.613,0,.526,2.532S.084,8.05,2.024,9.116A22.937,22.937,0,0,1,13.4,27.15C14.825,38.6,10.909,50.229,10.932,50.1Z" transform="translate(477.301 3.448)" fill="#fff"/>
    <path id="Path_50" data-name="Path 50" d="M5.417,41.707a40.426,40.426,0,0,0,9.19-17.942C17.629,12.362,8.613,1.21,7.642.953A4.39,4.39,0,0,0,1.116,2.2c-1.461,2.34-1.5,5.166-.042,6.264.568.5,8.289,5.265,8.555,14.921C10.255,32.713,5.337,41.854,5.417,41.707Z" transform="translate(472.711 21.323)" fill="#fff"/>
    <path id="Path_51" data-name="Path 51" d="M16.023,51.547c.075.242,6.075-11.028,4.2-24.361C18.8,13.8,9.5,2.547,8.57,1.633,6.384-.512,3.142-.545,1.342,1.543A5.193,5.193,0,0,0,1.383,8.56c.774.868,10.314,8.424,13.969,19.719C19.466,39.454,16.22,51.758,16.023,51.547Z" transform="translate(454.321 20.219)" fill="#fff"/>
    <path id="Path_52" data-name="Path 52" d="M9.8,31.593c.209.231,3.323-6.986,1.453-14.835A43.956,43.956,0,0,0,4.716,1.419C3.62,0,1.876-.425.824.464a2.9,2.9,0,0,0-.1,3.946c.486.616,5.6,6.175,8.128,13.016C11.782,24.239,10.069,31.74,9.8,31.593Z" transform="translate(454.569 45.661)" fill="#fff"/>
    <path id="Path_53" data-name="Path 53" d="M7.162,21.666c.091.162,2.478-4.673,1.33-10.124A28.247,28.247,0,0,0,4.317.824,2.177,2.177,0,0,0,1.089.61a2.5,2.5,0,0,0-.78,3.185A29.443,29.443,0,0,1,6.085,12.2C8.3,16.634,7.315,21.742,7.162,21.666Z" transform="translate(453.105 61.702)" fill="#fff"/>
    <path id="Path_54" data-name="Path 54" d="M0,9.458c-.106.028,10.911-4.226,22.089-3.836,12.046-.355,17.9,8.277,18.177,8.981,1.038,1.75,3.994,2.178,6.5,1.025s3.186-4.38,1.405-7.125A28.591,28.591,0,0,0,39.779,2.3C34.67-.132,27.743-.55,21.712.645A64.6,64.6,0,0,0,0,9.458Z" transform="translate(485.972 45.174)" fill="#fff"/>
    <path id="Path_55" data-name="Path 55" d="M0,11.3c-.119.047,8.56-4.837,17.673-5.13a17.614,17.614,0,0,1,15.042,6.684c1.084,1.3,3.857,1.051,6.13-.508A4.334,4.334,0,0,0,39.78,5.8c-.29-1.157-12.371-8.731-22.95-4.548A45.209,45.209,0,0,0,0,11.3Z" transform="translate(476.801 53.536)" fill="#fff"/>
    <path id="Path_56" data-name="Path 56" d="M0,6.429C-.181,6.342,10.6,2.511,20.9,5,31.376,7.015,38.226,15.22,38.981,15.842c1.576,1.545,4.545,1.294,6.606-.538a4.632,4.632,0,0,0,.056-6.9c-.793-.849-11.948-8.93-24.26-8.38A40.846,40.846,0,0,0,0,6.429Z" transform="translate(467.737 67.571)" fill="#fff"/>
    <path id="Path_57" data-name="Path 57" d="M0,3.009C-.129,2.871,6.425.628,12.729,2.571c6.315,1.576,11.438,5.92,12,6.3a2.711,2.711,0,0,0,3.663-.487A2.6,2.6,0,0,0,27.5,4.717,34.521,34.521,0,0,0,13.117.105C5.878-.654-.177,2.935,0,3.009Z" transform="translate(463.165 75.854)" fill="#fff"/>
    <path id="Path_58" data-name="Path 58" d="M0,2.379A13.886,13.886,0,0,1,8.54,2.5c4.151,1.205,7.324,4.343,7.7,4.578.785.5,2.111.018,2.955-1.07a2.087,2.087,0,0,0-.206-3.095A22.5,22.5,0,0,0,8.925.035,14.722,14.722,0,0,0,0,2.379Z" transform="translate(458.663 81.972)" fill="#fff"/>
    <path id="Path_59" data-name="Path 59" d="M0,19.372c-.091.142,7.208-8.875,17.281-12.76,10.61-4.443,18.8,3.3,19.372,3.908a4.391,4.391,0,0,0,5.763.192c1.541-1.379,1.067-4.1-1.1-6.046-.2-1.024-14.5-9.011-25.64-1.436C5.308,9.487.032,19.5,0,19.372Z" transform="translate(491.607 32.416)" fill="#fff"/>
    <path id="Path_60" data-name="Path 60" d="M0,18c-.059.09,3.646-6.414,9.4-9.963A11.333,11.333,0,0,1,21.248,7.7c1.139.575,2.97-.425,4.064-2.18A3.244,3.244,0,0,0,24.026.746c-.378-.728-11.469-2.475-16.994,4.4A32.556,32.556,0,0,0,0,18Z" transform="translate(500.172 22.345)" fill="#fff"/>
    <path id="Path_61" data-name="Path 61" d="M0,14.732A20.894,20.894,0,0,1,4.576,6.979,7.42,7.42,0,0,1,12.1,5.045c.808.2,1.836-.73,2.288-2.029a2.153,2.153,0,0,0-1.52-2.9C12.519-.3,5.131.219,2.6,5.448A21.418,21.418,0,0,0,0,14.732Z" transform="translate(504.45 15.563)" fill="#fff"/>
    <path id="Path_62" data-name="Path 62" d="M1.5,17.685A11.491,11.491,0,0,0,6.35,10.529c.99-4.96-1.867-9.5-2.079-9.84C3.656-.223,2.3-.229,1.253.668S-.284,2.853.17,3.533c.177.338,3.328,3.023,3.69,6.838C4.357,14.224,1.489,17.805,1.5,17.685Z" transform="translate(497.299 17.055)" fill="#fff"/>
    <path id="Path_63" data-name="Path 63" d="M10.395,6.832C11.409,13.514,5.284,17.9,5.284,17.9s4.088-5.145-2.112-8.838C-2.023,5.963.5,1.834,1.462.574,4.037,2.95,8.285,7.735,7.928,13.2c0,0,2.291-6.355-5.16-13.2C4.454-.029,9.423.429,10.395,6.832Z" transform="translate(293.054 178.982)" fill="#fff"/>
    <path id="Path_64" data-name="Path 64" d="M11.548,8.152c.726,7.579-6.435,12.126-6.435,12.126s4.917-5.531-1.826-10.072C-2.361,6.408.735,1.921,1.892.563,4.637,3.4,9.119,9.041,8.381,15.162c0,0,2.968-7-4.988-15.162C5.292.07,10.85.891,11.548,8.152Z" transform="translate(275.046 204.522)" fill="#fff"/>
    <path id="Path_65" data-name="Path 65" d="M10.564,9.751C18.324,8.36,20.694.694,20.694.694S16.669,6.609,10.123,1.767C4.641-2.285,1.109,1.709.105,3.114,3.75,4.822,10.717,7.328,16.591,5.01c0,0-6.076,4.561-16.591-.392C.638,6.3,3.131,11.081,10.564,9.751Z" transform="translate(380.852 169.566)" fill="#fff"/>
    <path id="Path_66" data-name="Path 66" d="M9.192,8.481C15.938,7.27,18,.6,18,.6s-3.5,5.144-9.192.933C4.039-1.987.968,1.485.094,2.71c3.17,1.483,9.228,3.663,14.338,1.647,0,0-5.286,3.967-14.432-.342C.56,5.485,2.727,9.636,9.192,8.481Z" transform="translate(398.729 188.932)" fill="#fff"/>
    <path id="Path_67" data-name="Path 67" d="M6.437,5.94C11.163,5.091,12.609.421,12.609.421s-2.455,3.606-6.439.656C2.828-1.393.677,1.041.064,1.9,2.286,2.938,6.531,4.464,10.108,3.051c0,0-3.7,2.78-10.108-.238C.39,3.842,1.909,6.751,6.437,5.94Z" transform="translate(410.446 207.746)" fill="#fff"/>
    <path id="Path_68" data-name="Path 68" d="M13.437,12.155C6.357,14.955,0,9.334,0,9.334s6.68,3.189,9.17-4.549C11.256-1.7,16.424.038,18.051.771,16.089,4.2,11.908,10.07,5.819,11.053c0,0,7.554.914,13.187-9C19.465,3.9,20.217,9.471,13.437,12.155Z" transform="translate(239.54 219.502)" fill="#fff"/>
    <path id="Path_69" data-name="Path 69" d="M10.755,10.881C3.171,10.218,0,2.351,0,2.351s4.55,5.842,10.233.034c4.766-4.865,8.616-1,9.741.378C16.689,4.948,10.324,8.333,4.437,6.49c0,0,6.344,4.2,15.817-2.147C19.84,6.2,18.022,11.514,10.755,10.881Z" transform="translate(254.305 183.921)" fill="#fff"/>
    <path id="Path_70" data-name="Path 70" d="M8.852,8.347C3.456,9.079,0,4.092,0,4.092S4.095,7.45,7.148,2.5C9.706-1.648,13,.438,14.007,1.227,12.058,3.271,8.151,6.638,3.749,6.278c0,0,5.094,1.928,10.7-3.992C14.454,3.646,14.022,7.644,8.852,8.347Z" transform="translate(266.513 155.614)" fill="#fff"/>
    <path id="Path_71" data-name="Path 71" d="M18.179,12.832C19.322,24.761,8.048,31.921,8.048,31.921s7.743-8.708-2.872-15.85C-3.719,10.086,1.16,3.022,2.974.884,7.3,5.346,14.355,14.231,13.191,23.873c0,0,4.679-11.025-7.848-23.873C8.331.105,17.083,1.4,18.179,12.832Z" transform="translate(270.318 240.296)" fill="#fff"/>
    <path id="Path_72" data-name="Path 72" d="M22.48,37.9C18.675,47.143,9.02,53.681,0,55.011c6.079-2.325,11.906-6.043,15.331-11.44a12.668,12.668,0,0,1-3.1-5.228c-.972-3.252-.44-5.325,3.612-12.6C23.331,9.683,21.4-.159,21.789,0A76.071,76.071,0,0,1,24.52,11.171C25.867,19.625,26.114,28.806,22.48,37.9Zm-6.9-4.592a3.155,3.155,0,1,0,4.468-.138A3.164,3.164,0,0,0,15.578,33.31Zm4.534-5.236a1.462,1.462,0,1,0,2.071-.063A1.466,1.466,0,0,0,20.113,28.074ZM22.7,17.412a.615.615,0,1,0,.021.867A.615.615,0,0,0,22.7,17.412Zm.372,5.228A.821.821,0,1,0,23.1,23.8.818.818,0,0,0,23.072,22.64Z" transform="translate(386.068 236.218)" fill="#fff"/>
    <path id="Path_73" data-name="Path 73" d="M75.1,64.7C71.2,37.713,57.869,25.36,57.869,25.36c8.129,9.1,1.951,14.627.325,15.6-2.645,1.586-13.005,2.275-14.305-12.029-1.294-14.233-9.753-18.858-9.753-8.778s-13.98,9.753-15.279-2.6C17.981,9.245,0,0,0,0,14.305,6.5,42.265,6.5,42.265,6.5,79.977,23.082,75.1,64.7,75.1,64.7ZM16.906,6.5a1.137,1.137,0,1,0,1.137,1.14A1.139,1.139,0,0,0,16.906,6.5ZM22.6,9.837a2.031,2.031,0,1,0,2.03,2.031A2.032,2.032,0,0,0,22.6,9.837Zm4.387,6.1a3.9,3.9,0,1,0,3.9,3.9A3.9,3.9,0,0,0,26.983,15.932Zm14.305-4.918a.853.853,0,1,0,.852.854A.855.855,0,0,0,41.288,11.014Zm5.364,4.918a1.138,1.138,0,1,0,1.137,1.137A1.138,1.138,0,0,0,46.652,15.932Zm4.226,6.257A2.031,2.031,0,1,0,52.91,24.22,2.029,2.029,0,0,0,50.878,22.189Zm2.762,7.235a4.387,4.387,0,1,0,4.391,4.387A4.386,4.386,0,0,0,53.641,29.424Z" transform="translate(308.035 166.116)" fill="#fff"/>
    <path id="Path_74" data-name="Path 74" d="M150.714,0c-5.8,20.552-28.87,48.275-72.613,53.018C36.916,57.486,0,30.679,0,30.679s32.606,19.055,39.66,4.766C47.9,18.764,62.542,22.936,64.984,27.4s.917,9.232-7.018,12.212c-6.158,2.313,1.526,10.127,26.543,6.551S108,19.363,115.022,20.255s4.573,9.831,4.573,9.831C139.428,23.831,150.714,0,150.714,0ZM35.758,43.129a.853.853,0,1,0,.852.854A.855.855,0,0,0,35.758,43.129Zm6.581-1.991a1.219,1.219,0,1,0,1.22,1.22A1.218,1.218,0,0,0,42.339,41.138Zm6.909-4.875a2.031,2.031,0,1,0,2.033,2.032A2.03,2.03,0,0,0,49.248,36.263Zm6.828-.406a3.9,3.9,0,1,0-3.9-3.9A3.9,3.9,0,0,0,56.076,35.857Zm50.716,3.533a.854.854,0,1,0,.852.854A.853.853,0,0,0,106.792,39.391Zm4.632-5.324a1.219,1.219,0,1,0,1.222-1.219A1.22,1.22,0,0,0,111.424,34.066Zm3.821-9.426a2.438,2.438,0,1,0,2.438,2.437A2.44,2.44,0,0,0,115.245,24.64Z" transform="translate(279.919 103.603)" fill="#fff"/>
    <path id="Path_75" data-name="Path 75" d="M.859,6.764A4.528,4.528,0,0,0,6.68,8.282,4.511,4.511,0,0,0,8.018,2.4,4.215,4.215,0,1,0,.859,6.764Z" transform="translate(362.196 322.942)" fill="#fff"/>
    <path id="Path_76" data-name="Path 76" d="M1.058,5.451a3.332,3.332,0,0,0,4.472.22A3.323,3.323,0,0,0,5.569,1.2,3.113,3.113,0,1,0,1.058,5.451Z" transform="translate(354.172 331.087)" fill="#fff"/>
    <path id="Path_77" data-name="Path 77" d="M1.042,3.771a2.169,2.169,0,0,0,2.88-.506A2.161,2.161,0,0,0,3.248.415,2.014,2.014,0,1,0,1.042,3.771Z" transform="translate(347.898 341.03)" fill="#fff"/>
    <path id="Path_78" data-name="Path 78" d="M.821,2.428a1.339,1.339,0,0,0,1.738-.6A1.333,1.333,0,0,0,1.851.139a1.275,1.275,0,0,0-1.742.6A1.265,1.265,0,0,0,.821,2.428Z" transform="translate(345.265 348.058)" fill="#fff"/>
    <path id="Path_79" data-name="Path 79" d="M.942,2.273a1.182,1.182,0,0,0,1.45-.793A1.246,1.246,0,0,0,1.513.06,1.128,1.128,0,0,0,.034.842,1.187,1.187,0,0,0,.942,2.273Z" transform="translate(343.351 353.84)" fill="#fff"/>
    <path id="Path_80" data-name="Path 80" d="M1.113,2.193a1.129,1.129,0,0,0,1.23-.983A1.109,1.109,0,0,0,1.33.011,1.17,1.17,0,0,0,.006.987,1.145,1.145,0,0,0,1.113,2.193Z" transform="translate(342.282 359.816)" fill="#fff"/>
    <path id="Path_81" data-name="Path 81" d="M1.049,1.839A.977.977,0,0,0,1.967.855.985.985,0,0,0,.92,0,.93.93,0,0,0,0,.985.938.938,0,0,0,1.049,1.839Z" transform="translate(342.429 365.462)" fill="#fff"/>
    <path id="Path_82" data-name="Path 82" d="M.849,1.365a.758.758,0,0,0,.6-.83A.692.692,0,0,0,.605.015.726.726,0,0,0,.011.844.672.672,0,0,0,.849,1.365Z" transform="translate(343.356 370.57)" fill="#fff"/>
    <path id="Path_83" data-name="Path 83" d="M9.593,1.648a5.532,5.532,0,0,0-8.066.2A5.545,5.545,0,0,0,1.945,9.9a5.705,5.705,0,0,0,7.816-.439A5.713,5.713,0,0,0,9.593,1.648Z" transform="translate(434.099 128.442)" fill="#fff"/>
    <path id="Path_84" data-name="Path 84" d="M7.618,1.813A4.078,4.078,0,0,0,1.731.847,4.08,4.08,0,0,0,.908,6.729a4.235,4.235,0,0,0,5.754.781A4.24,4.24,0,0,0,7.618,1.813Z" transform="translate(446.998 119.622)" fill="#fff"/>
    <path id="Path_85" data-name="Path 85" d="M5.217,1.733A2.671,2.671,0,0,0,1.659.216,2.682,2.682,0,1,0,3.742,5.158,2.708,2.708,0,0,0,5.217,1.733Z" transform="translate(461.813 113.41)" fill="#fff"/>
    <path id="Path_86" data-name="Path 86" d="M3.338,1.392A1.7,1.7,0,0,0,1.329.035,1.719,1.719,0,0,0,.051,2.1a1.639,1.639,0,0,0,1.98,1.216A1.661,1.661,0,0,0,3.338,1.392Z" transform="translate(471.917 111.526)" fill="#fff"/>
    <path id="Path_87" data-name="Path 87" d="M3.068,1.515A1.459,1.459,0,0,0,1.506,0a1.527,1.527,0,1,0,.06,3.054A1.615,1.615,0,0,0,3.068,1.515Z" transform="translate(480.075 110.751)" fill="#fff"/>
    <path id="Path_88" data-name="Path 88" d="M2.916,1.727A1.4,1.4,0,0,0,1.751.027,1.449,1.449,0,0,0,.017,1.2,1.492,1.492,0,0,0,1.18,2.9,1.557,1.557,0,0,0,2.916,1.727Z" transform="translate(488.17 111.527)" fill="#fff"/>
    <path id="Path_89" data-name="Path 89" d="M2.337,1.756A1.232,1.232,0,0,0,1.693.114,1.172,1.172,0,0,0,.084.74,1.306,1.306,0,0,0,.732,2.38,1.231,1.231,0,0,0,2.337,1.756Z" transform="translate(495.423 113.898)" fill="#fff"/>
    <path id="Path_90" data-name="Path 90" d="M1.712,1.385A.862.862,0,0,0,1.429.142.941.941,0,0,0,.138.429.9.9,0,0,0,.422,1.675.982.982,0,0,0,1.712,1.385Z" transform="translate(501.529 117.348)" fill="#fff"/>
    <path id="Path_91" data-name="Path 91" d="M1.708.829C-.436,2.214-.656,5.413,1.589,7.675c2.3,2.152,5.485,1.913,6.8-.138A4.979,4.979,0,0,0,7.9,1.291,5.088,5.088,0,0,0,1.708.829Z" transform="translate(330.717 82.698)" fill="#fff"/>
    <path id="Path_92" data-name="Path 92" d="M6.493,6.09A3.8,3.8,0,0,0,6.321.931a3.85,3.85,0,0,0-5.15.118,3.587,3.587,0,0,0,.018,5.32A3.624,3.624,0,0,0,6.493,6.09Z" transform="translate(417.725 227.164)" fill="#fff"/>
    <path id="Path_93" data-name="Path 93" d="M5.03,4.2A2.769,2.769,0,0,0,4.3.458a2.772,2.772,0,0,0-3.763.709A2.713,2.713,0,1,0,5.03,4.2Z" transform="translate(426.55 234.368)" fill="#fff"/>
    <path id="Path_94" data-name="Path 94" d="M3.392,2.461A1.854,1.854,0,0,0,2.482.14a1.8,1.8,0,0,0-2.309.927,1.746,1.746,0,0,0,.9,2.359A1.7,1.7,0,0,0,3.392,2.461Z" transform="translate(436.3 240.18)" fill="#fff"/>
    <path id="Path_95" data-name="Path 95" d="M2.179,1.355A1.1,1.1,0,0,0,1.393.026,1.177,1.177,0,0,0,.047.85,1.046,1.046,0,0,0,.831,2.189,1.113,1.113,0,0,0,2.179,1.355Z" transform="translate(442.83 242.885)" fill="#fff"/>
    <path id="Path_96" data-name="Path 96" d="M2,1.127A1.05,1.05,0,0,0,1.1.005,1.028,1.028,0,0,0,.009.91.994.994,0,0,0,.9,2.033.978.978,0,0,0,2,1.127Z" transform="translate(448.112 243.896)" fill="#fff"/>
    <path id="Path_97" data-name="Path 97" d="M1.916.923A1.049,1.049,0,0,0,.892,0,.94.94,0,0,0,0,1a1,1,0,0,0,1.026.955A.9.9,0,0,0,1.916.923Z" transform="translate(453.406 244.055)" fill="#fff"/>
    <path id="Path_98" data-name="Path 98" d="M1.584.6A.835.835,0,0,0,.622.006a.77.77,0,0,0-.6.933A.855.855,0,0,0,1,1.6.79.79,0,0,0,1.584.6Z" transform="translate(458.283 243.531)" fill="#fff"/>
    <path id="Path_99" data-name="Path 99" d="M1.177.409A.658.658,0,0,0,.384.029.576.576,0,0,0,.037.785a.637.637,0,0,0,.793.379A.557.557,0,0,0,1.177.409Z" transform="translate(462.583 242.434)" fill="#fff"/>
    <path id="Path_100" data-name="Path 100" d="M0,0A47.332,47.332,0,0,1,3.118,15.355a50.637,50.637,0,0,1-2.2,16.357,3.121,3.121,0,0,0,1.767,3.854c1.431.472,3.014-.681,3.528-2.58A48.624,48.624,0,0,0,5.82,15.013,47.777,47.777,0,0,0,0,0Z" transform="translate(218.223 93.49)" fill="#fff"/>
    <path id="Path_101" data-name="Path 101" d="M0,.011c.773-.1,4.361,17.722,3.574,18.62C3.692,19.609,5,20.3,6.5,20.168S9.107,19,8.966,17.843C9.615,16.122.612-.5,0,.011Z" transform="translate(227.083 107.586)" fill="#fff"/>
    <path id="Path_102" data-name="Path 102" d="M12.274,21.732c-5.294.927-9.166-4.985-6.327-10.574,2.313-4.551-.52-6.566-2.216-7.327A1.919,1.919,0,0,1,.406,5.687a1.894,1.894,0,0,1-.373-1.1C-.605.4,8.282-2.749,14.123,3.614,21.813,11.983,17.572,20.8,12.274,21.732Zm1.8-11.1A13.457,13.457,0,0,0,13.421,8.6L10.092,7.116a9.762,9.762,0,0,1,.109,3.591l4.194,1.871A15.706,15.706,0,0,0,14.072,10.635Zm.4,3.314-4.527-2.02c-.085.352-.144.69-.264,1.063a9.545,9.545,0,0,0-.447,2.159l4.688,2.093A9.311,9.311,0,0,0,14.474,13.949Zm-2.841,6.357a5.566,5.566,0,0,0,1.775-1.953L9.238,16.49A4.817,4.817,0,0,0,11.633,20.306ZM7,2.751A5.9,5.9,0,0,1,9.554,5.542l2.988,1.333A8.919,8.919,0,0,0,7,2.751Z" transform="translate(350.369 264.88)" fill="#fff"/>
    <path id="Path_103" data-name="Path 103" d="M6.151,6.646c-2.223-1.77-3.639-.451-4.242.39a1.066,1.066,0,1,1,0,2.1C-.449,9.014-1.168,3.816,2.952,1.345c5.421-3.254,9.755.045,9.668,3.032S8.88,8.819,6.151,6.646ZM8.7,5.294l1.655-2.307a5.327,5.327,0,0,0-1.743-.659L7.02,4.555c.182.086.361.153.549.261A5.076,5.076,0,0,0,8.7,5.294ZM1.686,5.131A3.286,3.286,0,0,1,3.492,4.054L4.54,2.594A5.022,5.022,0,0,0,1.686,5.131ZM6.774,2.16A7.277,7.277,0,0,0,5.588,2.3L4.414,3.934a5.47,5.47,0,0,1,1.967.342L7.86,2.215A8.157,8.157,0,0,0,6.774,2.16ZM10.9,3.386,9.423,5.449a2.683,2.683,0,0,0,2.349-.878A3.16,3.16,0,0,0,10.9,3.386Z" transform="translate(488.26 139.13)" fill="#fff"/>
    <path id="Path_104" data-name="Path 104" d="M11.3,5.769h-.244A5.279,5.279,0,1,0,9.506,9.506a5.267,5.267,0,0,0,1.546-3.737h.49A5.771,5.771,0,1,1,5.769,0a5.771,5.771,0,0,1,5.773,5.769Z" transform="translate(231.392 179.853)" fill="#fff"/>
    <path id="Path_105" data-name="Path 105" d="M4.146,2.2H3.9A1.706,1.706,0,1,0,2.2,3.9,1.709,1.709,0,0,0,3.9,2.2h.488A2.2,2.2,0,1,1,2.2,0,2.194,2.194,0,0,1,4.391,2.2Z" transform="translate(223.588 200.66)" fill="#fff"/>
    <path id="Path_106" data-name="Path 106" d="M.243,3.172H0A3.17,3.17,0,1,1,3.168,6.341,3.169,3.169,0,0,1,0,3.172H.487A2.683,2.683,0,1,0,3.169.489,2.686,2.686,0,0,0,.487,3.172Z" transform="translate(243.095 202.61)" fill="#fff"/>
    <path id="Path_107" data-name="Path 107" d="M2.844,1.546H2.6A1.057,1.057,0,1,0,1.541,2.6,1.057,1.057,0,0,0,2.6,1.546h.488A1.544,1.544,0,1,1,1.542,0,1.544,1.544,0,0,1,3.087,1.546Z" transform="translate(230.092 187.003)" fill="#fff"/>
    <path id="Path_108" data-name="Path 108" d="M.244,1.221H0A1.219,1.219,0,1,1,1.219,2.44,1.218,1.218,0,0,1,0,1.221H.487A.732.732,0,1,0,1.219.486a.733.733,0,0,0-.732.734Z" transform="translate(232.042 217.565)" fill="#fff"/>
    <path id="Path_109" data-name="Path 109" d="M3.494,1.869H3.25A1.381,1.381,0,1,0,1.869,3.25,1.382,1.382,0,0,0,3.25,1.869h.489A1.87,1.87,0,1,1,1.869,0,1.872,1.872,0,0,1,3.739,1.869Z" transform="translate(215.136 226.018)" fill="#fff"/>
    <path id="Path_110" data-name="Path 110" d="M.245,1.543H0A1.544,1.544,0,1,1,1.543,3.09,1.543,1.543,0,0,1,0,1.543H.488A1.057,1.057,0,1,0,1.543.488,1.057,1.057,0,0,0,.488,1.543Z" transform="translate(237.894 242.273)" fill="#fff"/>
    <path id="Path_111" data-name="Path 111" d="M8.7,4.47H8.454A3.988,3.988,0,1,0,7.287,7.284,3.964,3.964,0,0,0,8.454,4.47h.487A4.471,4.471,0,1,1,4.471,0a4.472,4.472,0,0,1,4.47,4.47Z" transform="translate(226.84 231.871)" fill="#fff"/>
    <path id="Path_112" data-name="Path 112" d="M1.545.893H1.3A.406.406,0,1,0,.9,1.3.407.407,0,0,0,1.3.893H1.79A.9.9,0,1,1,.9,0,.894.894,0,0,1,1.79.893Z" transform="translate(222.288 249.424)" fill="#fff"/>
    <path id="Path_113" data-name="Path 113" d="M.242,1.544H0A1.544,1.544,0,1,1,1.542,3.089,1.543,1.543,0,0,1,0,1.544H.486A1.057,1.057,0,1,0,1.542.488,1.056,1.056,0,0,0,.486,1.544Z" transform="translate(258.05 201.309)" fill="#fff"/>
    <path id="Path_114" data-name="Path 114" d="M2.846,1.544H2.6A1.057,1.057,0,1,0,1.546,2.6,1.059,1.059,0,0,0,2.6,1.544H3.09A1.545,1.545,0,1,1,1.546,0,1.542,1.542,0,0,1,3.09,1.544Z" transform="translate(205.381 201.309)" fill="#fff"/>
    <path id="Path_115" data-name="Path 115" d="M4.794,2.517h.244A2.519,2.519,0,1,1,2.519,0,2.521,2.521,0,0,1,5.038,2.517H4.55A2.03,2.03,0,1,0,2.52,4.55,2.029,2.029,0,0,0,4.55,2.517Z" transform="translate(216.437 181.154)" fill="#fff"/>
    <path id="Path_116" data-name="Path 116" d="M10,5.122H9.754A4.635,4.635,0,1,0,8.4,8.4,4.614,4.614,0,0,0,9.754,5.122h.488A5.121,5.121,0,1,1,5.121,0a5.12,5.12,0,0,1,5.121,5.122Z" transform="translate(254.798 170.098)" fill="#fff"/>
    <path id="Path_117" data-name="Path 117" d="M5.446,2.846H5.2A2.357,2.357,0,1,0,2.844,5.2,2.359,2.359,0,0,0,5.2,2.846h.487A2.844,2.844,0,1,1,2.844,0,2.843,2.843,0,0,1,5.689,2.846Z" transform="translate(244.395 171.399)" fill="#fff"/>
    <path id="Path_118" data-name="Path 118" d="M8.7,4.472H8.451A3.982,3.982,0,1,0,7.285,7.288,3.971,3.971,0,0,0,8.451,4.472h.487A4.469,4.469,0,1,1,4.468,0a4.469,4.469,0,0,1,4.47,4.472Z" transform="translate(211.236 210.411)" fill="#fff"/>
    <path id="Path_119" data-name="Path 119" d="M2.847,1.543H2.6A1.057,1.057,0,1,0,1.546,2.6,1.058,1.058,0,0,0,2.6,1.543h.487A1.544,1.544,0,1,1,1.546,0,1.541,1.541,0,0,1,3.088,1.543Z" transform="translate(200.181 227.968)" fill="#fff"/>
    <path id="Path_120" data-name="Path 120" d="M2.845,1.544H2.6A1.057,1.057,0,1,0,1.546,2.6,1.058,1.058,0,0,0,2.6,1.544h.488A1.545,1.545,0,1,1,1.546,0,1.544,1.544,0,0,1,3.089,1.544Z" transform="translate(214.486 265.68)" fill="#fff"/>
    <path id="Path_121" data-name="Path 121" d="M.245,1.868H0A1.869,1.869,0,1,1,1.871,3.739,1.871,1.871,0,0,1,0,1.868H.489A1.38,1.38,0,1,0,1.87.487,1.384,1.384,0,0,0,.489,1.868Z" transform="translate(260.975 96.951)" fill="#fff"/>
    <path id="Path_122" data-name="Path 122" d="M.242,1.868H0a1.868,1.868,0,1,1,1.868,1.87A1.868,1.868,0,0,1,0,1.868H.486A1.382,1.382,0,1,0,1.868.488,1.382,1.382,0,0,0,.486,1.868Z" transform="translate(282.108 114.507)" fill="#fff"/>
    <path id="Path_123" data-name="Path 123" d="M6.743,3.493H6.5A3.007,3.007,0,1,0,3.493,6.5,3.011,3.011,0,0,0,6.5,3.493h.488A3.494,3.494,0,1,1,3.493,0,3.493,3.493,0,0,1,6.988,3.493Z" transform="translate(180.676 91.424)" fill="#fff"/>
    <path id="Path_124" data-name="Path 124" d="M5.447,2.845H5.2A2.358,2.358,0,1,0,2.847,5.2,2.362,2.362,0,0,0,5.2,2.845h.488A2.846,2.846,0,1,1,2.847,0,2.845,2.845,0,0,1,5.691,2.845Z" transform="translate(196.279 86.222)" fill="#fff"/>
    <path id="Path_125" data-name="Path 125" d="M3.622,1.935H3.378A1.446,1.446,0,1,0,1.932,3.38,1.449,1.449,0,0,0,3.378,1.935h.487A1.933,1.933,0,1,1,1.933,0,1.933,1.933,0,0,1,3.865,1.935Z" transform="translate(215.787 93.246)" fill="#fff"/>
    <path id="Path_126" data-name="Path 126" d="M3.494,1.87H3.251A1.382,1.382,0,1,0,1.867,3.251,1.383,1.383,0,0,0,3.251,1.87h.487A1.869,1.869,0,1,1,1.867,0,1.869,1.869,0,0,1,3.738,1.87Z" transform="translate(193.679 110.93)" fill="#fff"/>
    <path id="Path_127" data-name="Path 127" d="M2.52,1.381H2.276a.894.894,0,1,0-.893.893.9.9,0,0,0,.893-.893h.489A1.383,1.383,0,1,1,1.383,0,1.38,1.38,0,0,1,2.765,1.381Z" transform="translate(187.338 126.048)" fill="#fff"/>
    <path id="Path_128" data-name="Path 128" d="M2.192,1.218H1.951a.732.732,0,1,0-.734.733.732.732,0,0,0,.734-.733h.488A1.219,1.219,0,1,1,1.216,0,1.221,1.221,0,0,1,2.438,1.218Z" transform="translate(305.191 99.551)" fill="#fff"/>
    <path id="Path_129" data-name="Path 129" d="M1.546.894H1.3A.407.407,0,1,0,.894,1.3.408.408,0,0,0,1.3.894h.487A.894.894,0,1,1,.895,0a.9.9,0,0,1,.894.894Z" transform="translate(214.485 124.584)" fill="#fff"/>
    <path id="Path_130" data-name="Path 130" d="M2.844,1.545H2.6A1.056,1.056,0,1,0,1.543,2.6,1.054,1.054,0,0,0,2.6,1.545h.486A1.543,1.543,0,1,1,1.543,0,1.542,1.542,0,0,1,3.087,1.545Z" transform="translate(200.831 146.041)" fill="#fff"/>
    <path id="Path_131" data-name="Path 131" d="M6.1,3.17H5.85A2.682,2.682,0,1,0,3.168,5.852,2.685,2.685,0,0,0,5.85,3.17h.488A3.169,3.169,0,1,1,3.168,0a3.168,3.168,0,0,1,3.17,3.17Z" transform="translate(422.229 155.145)" fill="#fff"/>
    <path id="Path_132" data-name="Path 132" d="M14.875,7.56H14.63a7.067,7.067,0,1,0-2.07,5,7.046,7.046,0,0,0,2.07-5h.488A7.559,7.559,0,1,1,7.56,0a7.562,7.562,0,0,1,7.558,7.56Z" transform="translate(441.734 149.292)" fill="#fff"/>
    <path id="Path_133" data-name="Path 133" d="M10,5.12H9.754A4.635,4.635,0,1,0,8.4,8.4,4.617,4.617,0,0,0,9.754,5.12h.488A5.121,5.121,0,1,1,5.121,0a5.124,5.124,0,0,1,5.122,5.12Z" transform="translate(446.61 160.02)" fill="#fff"/>
    <path id="Path_134" data-name="Path 134" d="M9.995,5.12H9.753A4.635,4.635,0,1,0,8.4,8.4,4.614,4.614,0,0,0,9.753,5.12h.487A5.12,5.12,0,1,1,5.119,0a5.122,5.122,0,0,1,5.121,5.12Z" transform="translate(472.946 64.44)" fill="#fff"/>
    <path id="Path_135" data-name="Path 135" d="M4.148,2.194H3.9A1.707,1.707,0,1,0,2.2,3.9,1.709,1.709,0,0,0,3.9,2.194h.489A2.2,2.2,0,1,1,2.2,0a2.2,2.2,0,0,1,2.2,2.194Z" transform="translate(463.19 136.613)" fill="#fff"/>
    <path id="Path_136" data-name="Path 136" d="M3.171,1.707H2.924a1.219,1.219,0,1,0-1.217,1.22,1.219,1.219,0,0,0,1.217-1.22h.491A1.707,1.707,0,1,1,1.707,0,1.708,1.708,0,0,1,3.415,1.707Z" transform="translate(468.068 160.02)" fill="#fff"/>
    <path id="Path_137" data-name="Path 137" d="M2.194,1.218H1.951a.731.731,0,1,0-.731.731.733.733,0,0,0,.731-.731h.487A1.219,1.219,0,1,1,1.219,0,1.219,1.219,0,0,1,2.437,1.218Z" transform="translate(431.006 172.701)" fill="#fff"/>
    <path id="Path_138" data-name="Path 138" d="M.245,5.608H0a5.608,5.608,0,1,1,5.609,5.611A5.608,5.608,0,0,1,0,5.608H.488a5.12,5.12,0,0,0,8.74,3.621A5.119,5.119,0,1,0,.488,5.608Z" transform="translate(420.278 138.563)" fill="#fff"/>
    <path id="Path_139" data-name="Path 139" d="M10,5.12H9.754A4.632,4.632,0,1,0,8.4,8.4,4.613,4.613,0,0,0,9.754,5.12h.485A5.12,5.12,0,1,1,5.121,0a5.119,5.119,0,0,1,5.119,5.12Z" transform="translate(402.722 159.046)" fill="#fff"/>
    <path id="Path_140" data-name="Path 140" d="M4.143,2.194H3.9A1.707,1.707,0,1,0,2.193,3.9,1.71,1.71,0,0,0,3.9,2.194h.487A2.194,2.194,0,1,1,2.193,0,2.194,2.194,0,0,1,4.387,2.194Z" transform="translate(464.168 183.428)" fill="#fff"/>
    <path id="Path_141" data-name="Path 141" d="M12.922,6.584h-.243a6.1,6.1,0,1,0-1.786,4.31,6.079,6.079,0,0,0,1.786-4.31h.488A6.583,6.583,0,1,1,6.583,0a6.584,6.584,0,0,1,6.584,6.584Z" transform="translate(474.896 113.205)" fill="#fff"/>
    <path id="Path_142" data-name="Path 142" d="M8.044,4.144H7.8A3.658,3.658,0,1,0,4.143,7.8,3.644,3.644,0,0,0,7.8,4.144h.488A4.144,4.144,0,1,1,4.143,0,4.145,4.145,0,0,1,8.289,4.144Z" transform="translate(493.428 150.268)" fill="#fff"/>
    <path id="Path_143" data-name="Path 143" d="M4.143,2.194H3.9A1.707,1.707,0,1,0,2.194,3.9,1.71,1.71,0,0,0,3.9,2.194h.488A2.195,2.195,0,1,1,2.194,0a2.2,2.2,0,0,1,2.2,2.194Z" transform="translate(501.23 177.578)" fill="#fff"/>
    <path id="Path_144" data-name="Path 144" d="M2.82,1.531H2.577A1.044,1.044,0,1,0,1.533,2.576,1.046,1.046,0,0,0,2.577,1.531h.488A1.532,1.532,0,1,1,1.533,0,1.532,1.532,0,0,1,3.065,1.531Z" transform="translate(490.186 196.771)" fill="#fff"/>
    <path id="Path_145" data-name="Path 145" d="M2.82,1.529H2.576A1.043,1.043,0,1,0,1.534,2.574,1.043,1.043,0,0,0,2.576,1.529h.489A1.532,1.532,0,1,1,1.534,0,1.533,1.533,0,0,1,3.065,1.529Z" transform="translate(452.15 74.194)" fill="#fff"/>
    <path id="Path_146" data-name="Path 146" d="M2.82,1.529H2.576A1.044,1.044,0,1,0,1.533,2.574,1.046,1.046,0,0,0,2.576,1.529h.49A1.533,1.533,0,1,1,1.533,0,1.535,1.535,0,0,1,3.066,1.529Z" transform="translate(539.265 71.932)" fill="#fff"/>
    <path id="Path_147" data-name="Path 147" d="M7.07,3.659H6.827A3.17,3.17,0,1,0,3.659,6.827,3.174,3.174,0,0,0,6.827,3.659h.489A3.658,3.658,0,1,1,3.659,0,3.656,3.656,0,0,1,7.316,3.659Z" transform="translate(509.031 122.959)" fill="#fff"/>
    <path id="Path_148" data-name="Path 148" d="M.244,1.708H0A1.707,1.707,0,1,1,1.707,3.414,1.707,1.707,0,0,1,0,1.708H.487A1.219,1.219,0,1,0,1.707.487,1.224,1.224,0,0,0,.487,1.708Z" transform="translate(520.735 199.034)" fill="#fff"/>
    <path id="Path_149" data-name="Path 149" d="M5.122,2.683H4.876A2.195,2.195,0,1,0,2.683,4.877,2.194,2.194,0,0,0,4.876,2.683h.488A2.682,2.682,0,1,1,2.683,0,2.682,2.682,0,0,1,5.365,2.683Z" transform="translate(450.512 94.674)" fill="#fff"/>
    <path id="Path_150" data-name="Path 150" d="M10.972,5.608h-.242a5.125,5.125,0,1,0-1.5,3.62,5.1,5.1,0,0,0,1.5-3.62h.487A5.608,5.608,0,1,1,5.608,0a5.607,5.607,0,0,1,5.608,5.608Z" transform="translate(477.821 85.896)" fill="#fff"/>
    <path id="Path_151" data-name="Path 151" d="M3.168,1.707H2.926A1.219,1.219,0,1,0,1.708,2.926,1.219,1.219,0,0,0,2.926,1.707h.485A1.706,1.706,0,1,1,1.707,0a1.705,1.705,0,0,1,1.7,1.707Z" transform="translate(510.983 102.476)" fill="#fff"/>
    <path id="Path_152" data-name="Path 152" d="M4.146,2.2H3.9A1.707,1.707,0,1,0,2.194,3.9,1.708,1.708,0,0,0,3.9,2.2h.488A2.194,2.194,0,1,1,2.194,0,2.2,2.2,0,0,1,4.389,2.2Z" transform="translate(531.464 127.834)" fill="#fff"/>
    <path id="Path_153" data-name="Path 153" d="M2.194,1.218H1.95a.731.731,0,1,0-.731.732.73.73,0,0,0,.731-.732h.488A1.219,1.219,0,1,1,1.219,0,1.22,1.22,0,0,1,2.437,1.218Z" transform="translate(561.699 146.368)" fill="#fff"/>
    <path id="Path_154" data-name="Path 154" d="M3.168,1.707H2.924A1.219,1.219,0,1,0,1.707,2.925,1.219,1.219,0,0,0,2.924,1.707h.49A1.707,1.707,0,1,1,1.707,0,1.708,1.708,0,0,1,3.414,1.707Z" transform="translate(538.292 100.527)" fill="#fff"/>
    <path id="Path_155" data-name="Path 155" d="M12.924,6.584h-.245a6.094,6.094,0,1,0-1.785,4.311,6.072,6.072,0,0,0,1.785-4.311h.488A6.583,6.583,0,1,1,6.581,0a6.584,6.584,0,0,1,6.584,6.584Z" transform="translate(504.155 71.268)" fill="#fff"/>
    <path id="Path_156" data-name="Path 156" d="M10,5.12H9.752A4.632,4.632,0,1,0,8.4,8.4,4.613,4.613,0,0,0,9.752,5.12h.488A5.12,5.12,0,1,1,5.12,0a5.12,5.12,0,0,1,5.12,5.12Z" transform="translate(534.39 148.318)" fill="#fff"/>
    <path id="Path_157" data-name="Path 157" d="M6.094,3.17H5.852A2.682,2.682,0,1,0,3.17,5.851,2.686,2.686,0,0,0,5.852,3.17h.488A3.17,3.17,0,1,1,3.17,0,3.169,3.169,0,0,1,6.339,3.17Z" transform="translate(524.637 173.677)" fill="#fff"/>
    <path id="Path_158" data-name="Path 158" d="M11.948,6.1H11.7a5.6,5.6,0,1,0-1.641,3.965A5.581,5.581,0,0,0,11.7,6.1h.488A6.1,6.1,0,1,1,6.094,0a6.1,6.1,0,0,1,6.1,6.1Z" transform="translate(484.649 161.971)" fill="#fff"/>
    <path id="Path_159" data-name="Path 159" d="M2.164,1.2H1.921A.717.717,0,1,0,1.2,1.92.723.723,0,0,0,1.921,1.2h.486A1.2,1.2,0,1,1,1.2,0,1.206,1.206,0,0,1,2.407,1.2Z" transform="translate(501.733 222.944)" fill="#fff"/>
    <path id="Path_160" data-name="Path 160" d="M2.2,1.218H1.95a.731.731,0,1,0-.728.731.727.727,0,0,0,.728-.731h.488A1.219,1.219,0,1,1,1.221,0,1.219,1.219,0,0,1,2.438,1.218Z" transform="translate(533.414 227.319)" fill="#fff"/>
    <path id="Path_161" data-name="Path 161" d="M0,7.721A10.374,10.374,0,0,1,4.387,1.146,6.568,6.568,0,0,1,8.217.005a4.411,4.411,0,0,1,3.252,2.334c1.666,2.536-1.3,6.294-3.95,4.805a2.378,2.378,0,0,1-.8-3.457,1.636,1.636,0,0,1,2.93.749,1.554,1.554,0,0,0-2.806-.643,2.123,2.123,0,0,0,.821,3.06c2.353,1.171,4.758-2.173,3.241-4.2C9.679.351,6.785.416,4.9,1.97a9.253,9.253,0,0,0-3.648,6" transform="translate(48.093 118.506)" fill="#fff"/>
    <path id="Path_162" data-name="Path 162" d="M18.971,0A32.622,32.622,0,0,1,15.639,13.75C12.522,20.914,4.249,24.412,3.451,24.365A2.746,2.746,0,0,1,.008,22.051a3.007,3.007,0,0,1,2.172-3.269,17.507,17.507,0,0,0,11.114-6.6A31.715,31.715,0,0,0,18.971,0Z" transform="translate(4.31 86.087)" fill="#fff"/>
    <path id="Path_163" data-name="Path 163" d="M11.8,0A16.679,16.679,0,0,1,9.267,8.13a18.174,18.174,0,0,1-7.051,6.356A1.543,1.543,0,0,1,.059,13.8a1.669,1.669,0,0,1,1.062-1.955A17.252,17.252,0,0,0,8.147,7.263,16.092,16.092,0,0,0,11.8,0Z" transform="translate(10.745 83.317)" fill="#fff"/>
    <path id="Path_164" data-name="Path 164" d="M8.032,0A11.783,11.783,0,0,1,6.495,5.633a11.977,11.977,0,0,1-4.786,4.533A1.186,1.186,0,0,1,.09,9.335,1.5,1.5,0,0,1,.6,7.533,10.966,10.966,0,0,0,5.38,4.767,11.229,11.229,0,0,0,8.032,0Z" transform="translate(13.47 80.305)" fill="#fff"/>
    <path id="Path_165" data-name="Path 165" d="M0,2.132a25.209,25.209,0,0,0,12.27,3.291C18.788,5.523,23.326.909,23.76.551a2.853,2.853,0,0,1,3.8.418A2.792,2.792,0,0,1,27.2,5.075c-.442.548-7.9,5.044-15.19,3.2A26.268,26.268,0,0,1,0,2.132Z" transform="translate(97.226 51.662)" fill="#fff"/>
    <path id="Path_166" data-name="Path 166" d="M0,.845A15.029,15.029,0,0,0,7.907,2.8,17.892,17.892,0,0,0,16.063.229a1.622,1.622,0,0,1,2.172.442A1.63,1.63,0,0,1,17.3,2.8,18.479,18.479,0,0,1,7.835,4.232,15.559,15.559,0,0,1,0,.845Z" transform="translate(95.721 50.518)" fill="#fff"/>
    <path id="Path_167" data-name="Path 167" d="M0,.969A10.413,10.413,0,0,0,5.355,2.06,11.555,11.555,0,0,0,10.645.083a1.437,1.437,0,0,1,1.687.77,1.246,1.246,0,0,1-.461,1.808,12.2,12.2,0,0,1-6.584.83A10.963,10.963,0,0,1,0,.969Z" transform="translate(94.252 47.555)" fill="#fff"/>
    <path id="Path_168" data-name="Path 168" d="M8.386,0A27.858,27.858,0,0,0,2.954,11.012c-1.459,6.434,3.6,10.323,3.99,10.587a2.561,2.561,0,0,1,.648,3.245c-.616,1-2.169,1-3.451-.039C3.557,24.79-2.21,17.464.931,10.432A28.038,28.038,0,0,1,8.386,0Z" transform="translate(71.54 141.836)" fill="#fff"/>
    <path id="Path_169" data-name="Path 169" d="M8.295,0A18.188,18.188,0,0,0,3.67,6.281,6.613,6.613,0,0,0,4.6,13.02c.426.592.041,1.723-.824,2.511a1.8,1.8,0,0,1-2.762-.267C.574,15.12-1.438,9.01,1.842,5.222A18.357,18.357,0,0,1,8.295,0Z" transform="translate(66.107 147.787)" fill="#fff"/>
    <path id="Path_170" data-name="Path 170" d="M7.067,0A11.8,11.8,0,0,0,3.208,3.337,4.341,4.341,0,0,0,2.847,7.78c.187.442-.229,1.112-.906,1.493A1.2,1.2,0,0,1,.192,8.691C-.07,8.534-.478,4.3,2.176,2.369A11.888,11.888,0,0,1,7.067,0Z" transform="translate(62.176 151.179)" fill="#fff"/>
    <path id="Path_171" data-name="Path 171" d="M9.668,0a6.531,6.531,0,0,1-3.5,3.438,8.085,8.085,0,0,1-5.64-.228A1.166,1.166,0,0,1,.231,1.5C.625.826,1.295.424,1.713.613a6.964,6.964,0,0,0,4.13,1.431A5.922,5.922,0,0,0,9.668,0Z" transform="translate(61.502 147.548)" fill="#fff"/>
    <path id="Path_172" data-name="Path 172" d="M4.363,28.763A34.885,34.885,0,0,1,.176,15.536C-1.142,7.72,5.347.573,6.2.5c1.588-.95,3.392-.5,4,.953s.249,3.17-.838,3.781A13.149,13.149,0,0,0,2.977,15.589,34.55,34.55,0,0,0,4.363,28.763Z" transform="translate(38.238 1.801)" fill="#fff"/>
    <path id="Path_173" data-name="Path 173" d="M5.507,23.946a23.321,23.321,0,0,1-5.162-10.3C-1.349,7.1,3.711.695,4.255.549a2.429,2.429,0,0,1,3.662.718c.822,1.342.843,2.965.027,3.6a11.062,11.062,0,0,0-4.8,8.566A22.8,22.8,0,0,0,5.507,23.946Z" transform="translate(42.768 12.062)" fill="#fff"/>
    <path id="Path_174" data-name="Path 174" d="M2.559,29.6A24.412,24.412,0,0,1,.2,15.608C1,7.925,6.221,1.463,6.742.936A2.712,2.712,0,0,1,10.8.887a3.028,3.028,0,0,1-.023,4.026c-.432.5-5.788,4.837-7.84,11.324A23.544,23.544,0,0,0,2.559,29.6Z" transform="translate(50.082 11.429)" fill="#fff"/>
    <path id="Path_175" data-name="Path 175" d="M1.148,18.138c-.117.135-1.863-4.011-.814-8.515A25.58,25.58,0,0,1,4,.816,1.553,1.553,0,0,1,6.186.265a1.692,1.692,0,0,1,.059,2.267A26.15,26.15,0,0,0,1.684,10C.035,13.915,1,18.224,1.148,18.138Z" transform="translate(54.847 26.036)" fill="#fff"/>
    <path id="Path_176" data-name="Path 176" d="M.923,12.44A9.021,9.021,0,0,1,.175,6.628,16.422,16.422,0,0,1,2.518.474,1.2,1.2,0,0,1,4.328.351a1.451,1.451,0,0,1,.439,1.828A16.917,16.917,0,0,0,1.528,7.007,8.509,8.509,0,0,0,.923,12.44Z" transform="translate(57.376 35.245)" fill="#fff"/>
    <path id="Path_177" data-name="Path 177" d="M27.6,5.431a35.078,35.078,0,0,0-12.4-2.2A11.545,11.545,0,0,0,5,8.384c-.581,1.006-2.241,1.251-3.645.59S-.44,6.459.562,4.883A16.075,16.075,0,0,1,5.27,1.319,16.686,16.686,0,0,1,15.409.371,35.848,35.848,0,0,1,27.6,5.431Z" transform="translate(16.273 25.756)" fill="#fff"/>
    <path id="Path_178" data-name="Path 178" d="M22.944,6.487a24.38,24.38,0,0,0-9.92-2.944A9.815,9.815,0,0,0,4.582,7.378c-.607.748-2.165.6-3.442-.29A2.526,2.526,0,0,1,.617,3.327C.781,2.665,7.56-1.686,13.5.717A25.282,25.282,0,0,1,22.944,6.487Z" transform="translate(26.072 30.557)" fill="#fff"/>
    <path id="Path_179" data-name="Path 179" d="M26.466,3.692a21.6,21.6,0,0,0-11.732-.824C8.858,4.027,5.013,8.738,4.587,9.1A2.761,2.761,0,0,1,.879,8.784a2.7,2.7,0,0,1-.03-3.957C1.3,4.34,7.556-.3,14.464.016A22.572,22.572,0,0,1,26.466,3.692Z" transform="translate(27.638 38.617)" fill="#fff"/>
    <path id="Path_180" data-name="Path 180" d="M16.182,1.728a11.387,11.387,0,0,0-7.14-.251A19.322,19.322,0,0,0,2.3,5.092a1.494,1.494,0,0,1-2.054-.28,1.512,1.512,0,0,1,.5-2.106A19.135,19.135,0,0,1,8.821.06,11.934,11.934,0,0,1,16.182,1.728Z" transform="translate(40.487 43.37)" fill="#fff"/>
    <path id="Path_181" data-name="Path 181" d="M11.1,1.366a7.625,7.625,0,0,0-4.791.072A12.532,12.532,0,0,0,1.982,4.066c-.44.286-1.183.01-1.658-.615A1.218,1.218,0,0,1,.439,1.673,12.429,12.429,0,0,1,6.093.02,8.144,8.144,0,0,1,11.1,1.366Z" transform="translate(48.096 46.883)" fill="#fff"/>
    <path id="Path_182" data-name="Path 182" d="M24.312,11.121c.052.083-4.045-5.094-9.7-7.325C8.659,1.245,4.064,5.693,3.742,6.04A2.423,2.423,0,0,1,.507,6.15c-.865-.793-.6-2.358.617-3.474.111-.584,8.143-5.171,14.389-.822A27.83,27.83,0,0,1,24.312,11.121Z" transform="translate(16.394 18.432)" fill="#fff"/>
    <path id="Path_183" data-name="Path 183" d="M14.519,10.336A18.12,18.12,0,0,0,9.245,4.614a6.243,6.243,0,0,0-6.651-.2C1.956,4.75.927,4.175.312,3.167A1.884,1.884,0,0,1,1.034.429c.213-.42,6.438-1.421,9.539,2.525A18.816,18.816,0,0,1,14.519,10.336Z" transform="translate(21.381 12.65)" fill="#fff"/>
    <path id="Path_184" data-name="Path 184" d="M8.155,8.457a12.079,12.079,0,0,0-2.568-4.45A4.094,4.094,0,0,0,1.364,2.9C.908,3.011.333,2.478.078,1.731A1.242,1.242,0,0,1,.931.064c.2-.236,4.343.062,5.763,3.066A12.493,12.493,0,0,1,8.155,8.457Z" transform="translate(25.344 8.756)" fill="#fff"/>
    <path id="Path_185" data-name="Path 185" d="M2.839,10.155A6.6,6.6,0,0,1,.116,6.047,8.566,8.566,0,0,1,1.286.4,1.1,1.1,0,0,1,2.977.383c.589.516.864,1.256.609,1.647A7.278,7.278,0,0,0,1.514,5.954,6.207,6.207,0,0,0,2.839,10.155Z" transform="translate(33.831 9.612)" fill="#fff"/>
    <path id="Path_186" data-name="Path 186" d="M.064,3.923c-.57,3.834,2.868,6.352,2.868,6.352A3.311,3.311,0,0,1,4.116,5.2,3.071,3.071,0,0,0,5.075.332C3.632,1.693,1.247,4.443,1.447,7.581c0,0-1.285-3.647,2.9-7.58C3.4-.016.608.247.064,3.923Z" transform="translate(146.251 102.579)" fill="#fff"/>
    <path id="Path_187" data-name="Path 187" d="M.029,4.681c-.409,4.349,3.61,6.96,3.61,6.96S.879,8.467,4.665,5.861C7.837,3.678,6.1,1.1,5.449.324,3.908,1.948,1.391,5.19,1.808,8.7c0,0-1.668-4.02,2.8-8.7C3.54.04.42.513.029,4.681Z" transform="translate(155.744 117.243)" fill="#fff"/>
    <path id="Path_188" data-name="Path 188" d="M5.682,5.6C1.328,4.8,0,.4,0,.4s2.257,3.4,5.931.617c3.075-2.326,5.059-.033,5.622.776C9.507,2.768,5.6,4.208,2.3,2.875c0,0,3.409,2.619,9.312-.225C11.256,3.619,9.853,6.362,5.682,5.6Z" transform="translate(91.258 97.173)" fill="#fff"/>
    <path id="Path_189" data-name="Path 189" d="M4.946,4.87C1.159,4.174,0,.346,0,.346S1.965,3.3,5.16.882a3.143,3.143,0,0,1,4.891.674C8.271,2.407,4.87,3.657,2,2.5c0,0,2.965,2.279,8.1-.2C9.791,3.149,8.574,5.532,4.946,4.87Z" transform="translate(82.732 108.292)" fill="#fff"/>
    <path id="Path_190" data-name="Path 190" d="M3.465,3.41A4.8,4.8,0,0,1,0,.241,2.376,2.376,0,0,0,3.615.619a2.2,2.2,0,0,1,3.426.471c-1.245.6-3.629,1.473-5.637.662,0,0,2.079,1.6,5.674-.137A2.932,2.932,0,0,1,3.465,3.41Z" transform="translate(79.181 119.095)" fill="#fff"/>
    <path id="Path_191" data-name="Path 191" d="M3.284,6.977c3.975,1.607,7.543-1.619,7.543-1.619S7.078,7.191,5.68,2.748C4.509-.975,1.607.023.695.443c1.1,1.967,3.448,5.336,6.864,5.9,0,0-4.241.526-7.4-5.163A4.716,4.716,0,0,0,3.284,6.977Z" transform="translate(171.357 125.844)" fill="#fff"/>
    <path id="Path_192" data-name="Path 192" d="M5.328,6.247c4.255-.382,6.037-4.9,6.037-4.9S8.813,4.7,5.622,1.37C2.946-1.424.786.791.154,1.585,2,2.841,5.572,4.781,8.876,3.725c0,0-3.563,2.41-8.876-1.232A4.6,4.6,0,0,0,5.328,6.247Z" transform="translate(162.53 105.415)" fill="#fff"/>
    <path id="Path_193" data-name="Path 193" d="M3.142,4.793c3.029.421,4.967-2.443,4.967-2.443A2.544,2.544,0,0,1,4.1,1.435,2.364,2.364,0,0,0,.249.7c1.093,1.174,3.285,3.107,5.756,2.9,0,0-2.858,1.1-6.005-2.295A3.334,3.334,0,0,0,3.142,4.793Z" transform="translate(158.935 89.163)" fill="#fff"/>
    <path id="Path_194" data-name="Path 194" d="M.046,7.367C-.6,14.216,5.73,18.325,5.73,18.325s-4.343-5,1.614-9.1C12.334,5.791,9.6,1.734,8.579.506,6.15,3.069,2.191,8.168,2.846,13.7c0,0-2.627-6.329,4.4-13.7C5.571.059.66.8.046,7.367Z" transform="translate(154.661 137.783)" fill="#fff"/>
    <path id="Path_195" data-name="Path 195" d="M5.668,25.015a17.393,17.393,0,0,0,8.606,6.569A16.833,16.833,0,0,1,1.658,21.762C-.385,16.539-.244,11.268.511,6.413A44.406,44.406,0,0,1,2.043,0c.221-.093-.867,5.558,3.337,14.78,2.273,4.176,2.571,5.366,2.028,7.235A7.287,7.287,0,0,1,5.668,25.015ZM1.308,13.663a.451.451,0,0,0,.648.02.477.477,0,0,0,.019-.663A.454.454,0,0,0,1.324,13,.48.48,0,0,0,1.308,13.663Zm.711-3.652A.34.34,0,0,0,1.533,10a.36.36,0,0,0-.015.5.341.341,0,0,0,.49.016A.357.357,0,0,0,2.019,10.011Zm.966,6.108a.811.811,0,0,0-1.162-.038.853.853,0,0,0-.031,1.187.807.807,0,0,0,1.162.039A.856.856,0,0,0,2.986,16.119Zm2.546,3.006a1.749,1.749,0,0,0-2.508-.081,1.846,1.846,0,0,0-.069,2.568,1.743,1.743,0,0,0,2.506.079A1.849,1.849,0,0,0,5.532,19.125Z" transform="translate(85.669 135.441)" fill="#fff"/>
    <path id="Path_196" data-name="Path 196" d="M31.683,10.079c-.731,7.093-8.577,7.282-8.577,1.494s-4.747-3.131-5.474,5.039c-.73,8.213-6.544,7.819-8.03,6.906-.91-.559-4.378-3.732.185-8.957,0,0-7.481,7.092-9.672,22.584,0,0-2.738-23.892,18.43-33.411,0,0,15.691,0,23.719-3.735C42.264,0,32.173,5.307,31.683,10.079ZM9.695,19.411a2.464,2.464,0,1,0,2.463-2.518A2.493,2.493,0,0,0,9.695,19.411Zm4.014-6.671a1.166,1.166,0,1,0,1.14,1.167A1.154,1.154,0,0,0,13.708,12.74Zm2.373-3.594a.654.654,0,1,0,.638.655A.646.646,0,0,0,16.081,9.146Zm3.012-2.822a.49.49,0,1,0,.477.49A.486.486,0,0,0,19.093,6.324Zm5.84,5.062a2.189,2.189,0,1,0,2.187-2.24A2.214,2.214,0,0,0,24.933,11.386Zm4.651-5.739a1.166,1.166,0,1,0,1.139,1.166A1.153,1.153,0,0,0,29.584,5.647Zm3.2-1.913a.653.653,0,1,0,.638.653A.645.645,0,0,0,32.779,3.734Z" transform="translate(101.474 95.193)" fill="#fff"/>
    <path id="Path_197" data-name="Path 197" d="M40.755,30.44C16.2,27.715,3.253,11.8,0,0,0,0,6.335,13.681,17.465,17.273c0,0-1.373-5.132,2.568-5.646s3.082,12.828,17.122,14.878,18.356-2.433,14.9-3.76c-4.45-1.71-5.307-4.449-3.938-7.013s9.59-4.958,14.214,4.619c3.96,8.2,22.261-2.737,22.261-2.737S63.87,33,40.755,30.44Zm-20.849-16.3a1.4,1.4,0,1,0,1.368,1.4A1.385,1.385,0,0,0,19.905,14.145Zm1.46,4.711a.7.7,0,1,0,.685.7A.693.693,0,0,0,21.365,18.856Zm3.285,3.76a.49.49,0,1,0,.478.488A.484.484,0,0,0,24.651,22.615Zm28.464-6.51a2.241,2.241,0,1,0,2.191,2.24A2.215,2.215,0,0,0,53.114,16.105Zm3.833,4.713a1.167,1.167,0,1,0,1.142,1.166A1.153,1.153,0,0,0,56.947,20.818Zm3.879,2.8a.7.7,0,1,0,.682.7A.693.693,0,0,0,60.826,23.617ZM64.52,24.76a.49.49,0,1,0,.479.492A.486.486,0,0,0,64.52,24.76Z" transform="translate(74.931 59.303)" fill="#fff"/>
    <path id="Path_198" data-name="Path 198" d="M4.32,3.883a2.509,2.509,0,0,1-3.268.871A2.629,2.629,0,0,1,.3,1.376,2.347,2.347,0,0,1,3.661.348,2.452,2.452,0,0,1,4.32,3.883Z" transform="translate(108.54 185.232)" fill="#fff"/>
    <path id="Path_199" data-name="Path 199" d="M3.007,3.13A1.841,1.841,0,0,1,.5,3.256,1.943,1.943,0,0,1,.473.687a1.731,1.731,0,0,1,2.579-.2A1.816,1.816,0,0,1,3.007,3.13Z" transform="translate(114.245 189.907)" fill="#fff"/>
    <path id="Path_200" data-name="Path 200" d="M1.782,2.165a1.2,1.2,0,0,1-1.617-.29A1.256,1.256,0,0,1,.545.239,1.114,1.114,0,0,1,2.177.518,1.168,1.168,0,0,1,1.782,2.165Z" transform="translate(118.999 195.616)" fill="#fff"/>
    <path id="Path_201" data-name="Path 201" d="M1.032,1.393a.746.746,0,0,1-.977-.341.772.772,0,0,1,.4-.972.707.707,0,0,1,.977.341A.731.731,0,0,1,1.032,1.393Z" transform="translate(121.352 199.651)" fill="#fff"/>
    <path id="Path_202" data-name="Path 202" d="M.828,1.3A.658.658,0,0,1,.014.85.718.718,0,0,1,.506.034a.633.633,0,0,1,.832.45A.679.679,0,0,1,.828,1.3Z" transform="translate(122.56 202.971)" fill="#fff"/>
    <path id="Path_203" data-name="Path 203" d="M.695,1.259A.635.635,0,0,1,.006.694.631.631,0,0,1,.573.006a.66.66,0,0,1,.743.561A.651.651,0,0,1,.695,1.259Z" transform="translate(123.198 206.402)" fill="#fff"/>
    <path id="Path_204" data-name="Path 204" d="M.517,1.055A.555.555,0,0,1,0,.49.552.552,0,0,1,.586,0a.529.529,0,1,1-.07,1.054Z" transform="translate(123.331 209.645)" fill="#fff"/>
    <path id="Path_205" data-name="Path 205" d="M.34.783A.432.432,0,0,1,.006.308.385.385,0,0,1,.475.01.414.414,0,0,1,.81.484.376.376,0,0,1,.34.783Z" transform="translate(123.099 212.577)" fill="#fff"/>
    <path id="Path_206" data-name="Path 206" d="M.915.946a3.06,3.06,0,0,1,4.527.115,3.232,3.232,0,0,1-.235,4.625A3.148,3.148,0,0,1,.823,5.435,3.337,3.337,0,0,1,.915.946Z" transform="translate(66.684 73.563)" fill="#fff"/>
    <path id="Path_207" data-name="Path 207" d="M.392,1.041A2.257,2.257,0,0,1,3.7.486a2.378,2.378,0,0,1,.462,3.376,2.341,2.341,0,0,1-3.23.449A2.468,2.468,0,0,1,.392,1.041Z" transform="translate(61.078 68.499)" fill="#fff"/>
    <path id="Path_208" data-name="Path 208" d="M.091,1a1.491,1.491,0,0,1,2-.873,1.567,1.567,0,0,1,.791,2.068,1.494,1.494,0,0,1-1.96.77A1.567,1.567,0,0,1,.091,1Z" transform="translate(54.41 64.931)" fill="#fff"/>
    <path id="Path_209" data-name="Path 209" d="M.014.8A.955.955,0,0,1,1.142.02.987.987,0,0,1,1.858,1.2a.919.919,0,0,1-1.111.7A.949.949,0,0,1,.014.8Z" transform="translate(49.871 63.851)" fill="#fff"/>
    <path id="Path_210" data-name="Path 210" d="M0,.87A.826.826,0,0,1,.878,0a.87.87,0,0,1,.841.918.862.862,0,0,1-.875.835A.922.922,0,0,1,0,.87Z" transform="translate(45.457 63.407)" fill="#fff"/>
    <path id="Path_211" data-name="Path 211" d="M.022.99A.8.8,0,0,1,.677.015a.817.817,0,0,1,.975.674A.858.858,0,0,1,1,1.666.878.878,0,0,1,.022.99Z" transform="translate(40.976 63.852)" fill="#fff"/>
    <path id="Path_212" data-name="Path 212" d="M.065,1.006A.71.71,0,0,1,.426.065a.652.652,0,0,1,.9.36.755.755,0,0,1-.365.939A.683.683,0,0,1,.065,1.006Z" transform="translate(37.19 65.214)" fill="#fff"/>
    <path id="Path_213" data-name="Path 213" d="M.089.8A.5.5,0,0,1,.245.082.523.523,0,0,1,.812.961.539.539,0,0,1,.089.8Z" transform="translate(34.09 67.194)" fill="#fff"/>
    <path id="Path_214" data-name="Path 214" d="M4.234.475A2.539,2.539,0,0,1,4.3,4.407C3.01,5.642,1.222,5.5.486,4.327A2.908,2.908,0,0,1,.76.742,2.809,2.809,0,0,1,4.234.475Z" transform="translate(125.817 47.3)" fill="#fff"/>
    <path id="Path_215" data-name="Path 215" d="M.518,3.5A2.217,2.217,0,0,1,.616.535,2.122,2.122,0,0,1,3.5.6,2.1,2.1,0,0,1,3.5,3.659,2.006,2.006,0,0,1,.518,3.5Z" transform="translate(78.012 130.242)" fill="#fff"/>
    <path id="Path_216" data-name="Path 216" d="M.24,2.415A1.615,1.615,0,0,1,.648.262,1.533,1.533,0,0,1,2.76.672,1.579,1.579,0,0,1,2.4,2.886,1.505,1.505,0,0,1,.24,2.415Z" transform="translate(74.158 134.378)" fill="#fff"/>
    <path id="Path_217" data-name="Path 217" d="M.069,1.413A1.069,1.069,0,0,1,.579.08,1,1,0,0,1,1.871.613a1.012,1.012,0,0,1-.5,1.356A.949.949,0,0,1,.069,1.413Z" transform="translate(69.778 137.715)" fill="#fff"/>
    <path id="Path_218" data-name="Path 218" d="M.016.779A.632.632,0,0,1,.457.015a.659.659,0,0,1,.756.473.6.6,0,0,1-.439.768A.624.624,0,0,1,.016.779Z" transform="translate(66.845 139.268)" fill="#fff"/>
    <path id="Path_219" data-name="Path 219" d="M0,.646A.6.6,0,0,1,.5,0a.578.578,0,0,1,.613.521.567.567,0,0,1-.5.644A.553.553,0,0,1,0,.646Z" transform="translate(63.997 139.849)" fill="#fff"/>
    <path id="Path_220" data-name="Path 220" d="M0,.531A.6.6,0,0,1,.578,0a.538.538,0,0,1,.5.573A.565.565,0,0,1,.5,1.12.516.516,0,0,1,0,.531Z" transform="translate(61.068 139.94)" fill="#fff"/>
    <path id="Path_221" data-name="Path 221" d="M.015.341A.468.468,0,0,1,.557,0,.439.439,0,0,1,.9.538.484.484,0,0,1,.344.92.458.458,0,0,1,.015.341Z" transform="translate(58.506 139.641)" fill="#fff"/>
    <path id="Path_222" data-name="Path 222" d="M.026.235A.368.368,0,0,1,.47.016a.339.339,0,0,1,.2.436A.354.354,0,0,1,.223.669.321.321,0,0,1,.026.235Z" transform="translate(56.31 139.008)" fill="#fff"/>
    <path id="Path_223" data-name="Path 223" d="M3.853,0A27.7,27.7,0,0,0,2.1,8.815,29.66,29.66,0,0,0,3.34,18.208a1.808,1.808,0,0,1-.993,2.212c-.8.271-1.691-.389-1.98-1.483A28.641,28.641,0,0,1,.584,8.62,27.809,27.809,0,0,1,3.853,0Z" transform="translate(190.295 53.496)" fill="#fff"/>
    <path id="Path_224" data-name="Path 224" d="M5.05.007C4.615-.048,2.6,10.182,3.042,10.7c-.064.562-.8.956-1.642.884S-.062,10.91.019,10.245C-.347,9.256,4.707-.286,5.05.007Z" transform="translate(184.126 61.588)" fill="#fff"/>
    <path id="Path_225" data-name="Path 225" d="M10.268,2.637a1.09,1.09,0,0,1-.212.627,1.065,1.065,0,0,1-1.51.231A1.116,1.116,0,0,1,8.19,2.2C7.237,2.636,5.648,3.793,6.946,6.4c1.593,3.211-.581,6.6-3.552,6.07s-5.353-5.6-1.038-10.4C5.636-1.578,10.623.228,10.268,2.637ZM4.85,7.459c-.067-.213-.1-.409-.149-.611L2.179,8a5.539,5.539,0,0,0,.3,1.9L5.093,8.7A5.666,5.666,0,0,0,4.85,7.459ZM2.385,6.108a8.866,8.866,0,0,0-.163,1.108L4.56,6.147A5.778,5.778,0,0,1,4.62,4.084l-1.857.849A7.794,7.794,0,0,0,2.385,6.108Zm1.369,5.55A2.766,2.766,0,0,0,5.1,9.468L2.762,10.534A3.235,3.235,0,0,0,3.754,11.658ZM3.266,3.937l1.657-.755a3.359,3.359,0,0,1,1.431-1.6A5.049,5.049,0,0,0,3.266,3.937Z" transform="translate(109.695 151.896)" fill="#fff"/>
    <path id="Path_226" data-name="Path 226" d="M6.01,5.243A.547.547,0,0,1,5.653,5.2a.62.62,0,0,1-.291-.817.594.594,0,0,1,.651-.341,1.465,1.465,0,0,0-2.382-.227C2.1,5.061.048,4.231,0,2.514S2.382-1.1,5.428.773C7.74,2.192,7.336,5.176,6.01,5.243ZM3.146,2.613,2.251,1.336a2.929,2.929,0,0,0-.979.378L2.2,3.04a2.809,2.809,0,0,0,.636-.275C2.942,2.7,3.042,2.665,3.146,2.613Zm-1.352.515L.965,1.945a1.815,1.815,0,0,0-.488.678A1.486,1.486,0,0,0,1.794,3.129ZM3.281,1.24a4.414,4.414,0,0,0-.608.033L3.5,2.454a2.986,2.986,0,0,1,1.1-.195L3.949,1.32A3.99,3.99,0,0,0,3.281,1.24Zm1.255.249.589.839a1.844,1.844,0,0,1,1.014.618A2.853,2.853,0,0,0,4.536,1.489Z" transform="translate(35.502 79.7)" fill="#fff"/>
    <path id="Path_227" data-name="Path 227" d="M.138,3.311H.274a3.048,3.048,0,0,1,.868-2.143,2.92,2.92,0,0,1,4.194,0,3.085,3.085,0,0,1,0,4.29,2.923,2.923,0,0,1-4.194,0A3.051,3.051,0,0,1,.274,3.311H0A3.277,3.277,0,0,0,3.239,6.625,3.276,3.276,0,0,0,6.477,3.311,3.275,3.275,0,0,0,3.239,0,3.276,3.276,0,0,0,0,3.311Z" transform="translate(180.28 103.08)" fill="#fff"/>
    <path id="Path_228" data-name="Path 228" d="M.139,1.262H.275a.97.97,0,0,1,.957-.98.97.97,0,0,1,.958.98.969.969,0,0,1-.958.979.969.969,0,0,1-.957-.979H0A1.245,1.245,0,0,0,1.232,2.52,1.245,1.245,0,0,0,2.464,1.262,1.247,1.247,0,0,0,1.232,0,1.247,1.247,0,0,0,0,1.262Z" transform="translate(188.672 115.025)" fill="#fff"/>
    <path id="Path_229" data-name="Path 229" d="M3.421,1.822h.137A1.8,1.8,0,0,0,1.779,0,1.8,1.8,0,0,0,0,1.822,1.8,1.8,0,0,0,1.779,3.639,1.8,1.8,0,0,0,3.558,1.822H3.285A1.525,1.525,0,0,1,1.779,3.36,1.524,1.524,0,0,1,.273,1.822,1.524,1.524,0,0,1,1.779.281,1.524,1.524,0,0,1,3.285,1.822Z" transform="translate(176.63 116.146)" fill="#fff"/>
    <path id="Path_230" data-name="Path 230" d="M.136.888H.274A.6.6,0,0,1,.867.283a.606.606,0,0,1,0,1.212A.6.6,0,0,1,.274.888H0a.875.875,0,0,0,.867.886A.879.879,0,0,0,1.735.888.879.879,0,0,0,.867,0,.876.876,0,0,0,0,.888Z" transform="translate(185.753 107.185)" fill="#fff"/>
    <path id="Path_231" data-name="Path 231" d="M1.23.7h.14A.692.692,0,0,0,.685,0,.692.692,0,0,0,0,.7a.692.692,0,0,0,.685.7A.692.692,0,0,0,1.37.7H1.095a.414.414,0,0,1-.411.42.42.42,0,0,1,0-.839A.416.416,0,0,1,1.095.7Z" transform="translate(185.023 124.732)" fill="#fff"/>
    <path id="Path_232" data-name="Path 232" d="M.138,1.073H.274A.785.785,0,0,1,1.048.279a.784.784,0,0,1,.777.794.784.784,0,0,1-.777.791.785.785,0,0,1-.775-.791H0A1.062,1.062,0,0,0,1.049,2.145,1.061,1.061,0,0,0,2.1,1.073,1.061,1.061,0,0,0,1.049,0,1.062,1.062,0,0,0,0,1.073Z" transform="translate(193.781 129.586)" fill="#fff"/>
    <path id="Path_233" data-name="Path 233" d="M1.6.888h.135A.876.876,0,0,0,.867,0,.876.876,0,0,0,0,.888a.876.876,0,0,0,.867.887A.876.876,0,0,0,1.732.888H1.458A.6.6,0,0,1,.867,1.5.6.6,0,0,1,.273.888.6.6,0,0,1,.867.283a.6.6,0,0,1,.592.605Z" transform="translate(181.374 138.915)" fill="#fff"/>
    <path id="Path_234" data-name="Path 234" d="M.135,2.567H.274A2.29,2.29,0,0,1,.927.95a2.2,2.2,0,0,1,3.161,0,2.319,2.319,0,0,1,0,3.232,2.2,2.2,0,0,1-3.161,0A2.3,2.3,0,0,1,.274,2.567H0A2.537,2.537,0,0,0,2.506,5.133,2.536,2.536,0,0,0,5.015,2.567,2.537,2.537,0,0,0,2.506,0,2.538,2.538,0,0,0,0,2.567Z" transform="translate(184.296 132.945)" fill="#fff"/>
    <path id="Path_235" data-name="Path 235" d="M.136.514H.274A.232.232,0,0,1,.5.28.234.234,0,0,1,.5.749.233.233,0,0,1,.274.514H0a.508.508,0,0,0,.5.513A.506.506,0,0,0,1,.514.507.507,0,0,0,.5,0,.508.508,0,0,0,0,.514Z" transform="translate(190.862 143.021)" fill="#fff"/>
    <path id="Path_236" data-name="Path 236" d="M1.6.887h.137A.876.876,0,0,0,.865,0,.876.876,0,0,0,0,.887a.875.875,0,0,0,.865.885A.876.876,0,0,0,1.732.887H1.459a.6.6,0,0,1-.594.605A.6.6,0,0,1,.27.887.6.6,0,0,1,.865.28a.6.6,0,0,1,.594.607Z" transform="translate(170.062 115.399)" fill="#fff"/>
    <path id="Path_237" data-name="Path 237" d="M.138.887H.274A.6.6,0,0,1,.869.28a.6.6,0,0,1,.592.607.6.6,0,0,1-.592.605.6.6,0,0,1-.6-.605H0a.878.878,0,0,0,.869.885A.875.875,0,0,0,1.734.887.876.876,0,0,0,.869,0,.879.879,0,0,0,0,.887Z" transform="translate(199.62 115.399)" fill="#fff"/>
    <path id="Path_238" data-name="Path 238" d="M.136,1.444H0A1.432,1.432,0,0,0,1.413,2.892,1.432,1.432,0,0,0,2.828,1.444,1.43,1.43,0,0,0,1.413,0,1.43,1.43,0,0,0,0,1.444H.273A1.156,1.156,0,0,1,1.414.278,1.157,1.157,0,0,1,2.555,1.444,1.156,1.156,0,0,1,1.414,2.612,1.157,1.157,0,0,1,.273,1.444Z" transform="translate(192.323 103.828)" fill="#fff"/>
    <path id="Path_239" data-name="Path 239" d="M.138,2.94H.275a2.686,2.686,0,0,1,.761-1.881,2.559,2.559,0,0,1,3.678,0,2.7,2.7,0,0,1,0,3.76,2.557,2.557,0,0,1-3.678,0A2.681,2.681,0,0,1,.275,2.94H0A2.908,2.908,0,0,0,2.874,5.88,2.908,2.908,0,0,0,5.747,2.94,2.907,2.907,0,0,0,2.874,0,2.907,2.907,0,0,0,0,2.94Z" transform="translate(167.87 97.481)" fill="#fff"/>
    <path id="Path_240" data-name="Path 240" d="M.136,1.635H.273A1.343,1.343,0,0,1,1.595.28,1.341,1.341,0,0,1,2.918,1.635,1.342,1.342,0,0,1,1.595,2.987,1.343,1.343,0,0,1,.273,1.635H0A1.615,1.615,0,0,0,1.594,3.268a1.614,1.614,0,0,0,1.6-1.633A1.613,1.613,0,0,0,1.594,0,1.614,1.614,0,0,0,0,1.635Z" transform="translate(176.265 98.227)" fill="#fff"/>
    <path id="Path_241" data-name="Path 241" d="M.137,2.568H.275A2.3,2.3,0,0,1,.928.951a2.195,2.195,0,0,1,3.161,0,2.324,2.324,0,0,1,0,3.235,2.2,2.2,0,0,1-3.161,0A2.3,2.3,0,0,1,.275,2.568H0A2.539,2.539,0,0,0,2.509,5.135,2.537,2.537,0,0,0,5.017,2.568,2.538,2.538,0,0,0,2.509,0,2.54,2.54,0,0,0,0,2.568Z" transform="translate(193.052 120.623)" fill="#fff"/>
    <path id="Path_242" data-name="Path 242" d="M.136.887H.274A.6.6,0,0,1,.865.279a.6.6,0,0,1,.594.608.6.6,0,0,1-.594.6.6.6,0,0,1-.592-.6H0a.875.875,0,0,0,.865.887A.876.876,0,0,0,1.733.887.877.877,0,0,0,.865,0,.876.876,0,0,0,0,.887Z" transform="translate(202.541 130.704)" fill="#fff"/>
    <path id="Path_243" data-name="Path 243" d="M.14.884H.274A.6.6,0,0,1,.866.278a.606.606,0,0,1,0,1.212A.6.6,0,0,1,.274.884H0a.877.877,0,0,0,.866.888A.877.877,0,0,0,1.734.884.876.876,0,0,0,.866,0,.876.876,0,0,0,0,.884Z" transform="translate(194.511 152.357)" fill="#fff"/>
    <path id="Path_244" data-name="Path 244" d="M1.961,1.075H2.1A1.062,1.062,0,0,0,1.049,0,1.061,1.061,0,0,0,0,1.075,1.061,1.061,0,0,0,1.049,2.148,1.063,1.063,0,0,0,2.1,1.075H1.825a.784.784,0,0,1-.776.791.787.787,0,0,1-.775-.791A.787.787,0,0,1,1.049.281a.784.784,0,0,1,.776.794Z" transform="translate(168.052 55.483)" fill="#fff"/>
    <path id="Path_245" data-name="Path 245" d="M1.961,1.071H2.1A1.06,1.06,0,0,0,1.048,0,1.061,1.061,0,0,0,0,1.071,1.062,1.062,0,0,0,1.048,2.146,1.062,1.062,0,0,0,2.1,1.071H1.826a.792.792,0,0,1-.778.8.789.789,0,0,1-.775-.8A.788.788,0,0,1,1.048.279a.79.79,0,0,1,.778.792Z" transform="translate(156.193 65.563)" fill="#fff"/>
    <path id="Path_246" data-name="Path 246" d="M.138,2.005H.274A1.705,1.705,0,0,1,1.961.282,1.707,1.707,0,0,1,3.649,2.005,1.71,1.71,0,0,1,1.961,3.734,1.71,1.71,0,0,1,.274,2.005H0A1.985,1.985,0,0,0,1.961,4.014,1.987,1.987,0,0,0,3.924,2.005,1.984,1.984,0,0,0,1.961,0,1.984,1.984,0,0,0,0,2.005Z" transform="translate(211.299 52.31)" fill="#fff"/>
    <path id="Path_247" data-name="Path 247" d="M.136,1.634H.273A1.342,1.342,0,0,1,1.6.278,1.34,1.34,0,0,1,2.918,1.634,1.336,1.336,0,0,1,1.6,2.986,1.338,1.338,0,0,1,.273,1.634H0A1.615,1.615,0,0,0,1.6,3.267a1.616,1.616,0,0,0,1.6-1.633A1.617,1.617,0,0,0,1.6,0,1.615,1.615,0,0,0,0,1.634Z" transform="translate(203.27 49.324)" fill="#fff"/>
    <path id="Path_248" data-name="Path 248" d="M.138,1.112H.273A.821.821,0,0,1,1.087.281a.821.821,0,0,1,.809.831.822.822,0,0,1-.809.829.821.821,0,0,1-.814-.829H0A1.1,1.1,0,0,0,1.087,2.221,1.1,1.1,0,0,0,2.171,1.112,1.1,1.1,0,0,0,1.087,0,1.1,1.1,0,0,0,0,1.112Z" transform="translate(193.345 53.355)" fill="#fff"/>
    <path id="Path_249" data-name="Path 249" d="M.136,1.075H.272a.789.789,0,0,1,.776-.8.786.786,0,0,1,.775.8.784.784,0,0,1-.775.792.788.788,0,0,1-.776-.792H0A1.059,1.059,0,0,0,1.047,2.147,1.061,1.061,0,0,0,2.1,1.075,1.062,1.062,0,0,0,1.047,0,1.06,1.06,0,0,0,0,1.075Z" transform="translate(205.826 63.508)" fill="#fff"/>
    <path id="Path_250" data-name="Path 250" d="M.137.793H.273A.51.51,0,0,1,.775.28a.513.513,0,0,1,0,1.026.508.508,0,0,1-.5-.513H0a.782.782,0,0,0,.775.791A.781.781,0,0,0,1.549.793.783.783,0,0,0,.775,0,.784.784,0,0,0,0,.793Z" transform="translate(209.931 72.188)" fill="#fff"/>
    <path id="Path_251" data-name="Path 251" d="M.136.7H.274A.417.417,0,0,1,.685.278.414.414,0,0,1,1.093.7a.414.414,0,0,1-.408.418A.416.416,0,0,1,.274.7H0a.692.692,0,0,0,.685.7A.693.693,0,0,0,1.368.7.691.691,0,0,0,.685,0,.691.691,0,0,0,0,.7Z" transform="translate(143.967 56.978)" fill="#fff"/>
    <path id="Path_252" data-name="Path 252" d="M.135.514H.274A.231.231,0,0,1,.5.28.234.234,0,0,1,.5.748.231.231,0,0,1,.274.514H0a.506.506,0,0,0,.5.513A.508.508,0,0,0,1,.514.509.509,0,0,0,.5,0,.508.508,0,0,0,0,.514Z" transform="translate(195.242 71.348)" fill="#fff"/>
    <path id="Path_253" data-name="Path 253" d="M.139.888H.275A.6.6,0,0,1,.868.281a.6.6,0,0,1,.594.607.6.6,0,0,1-.594.605A.6.6,0,0,1,.275.888H0a.877.877,0,0,0,.868.884A.876.876,0,0,0,1.736.888.879.879,0,0,0,.868,0,.881.881,0,0,0,0,.888Z" transform="translate(202.174 83.667)" fill="#fff"/>
    <path id="Path_254" data-name="Path 254" d="M.135,1.821H.273A1.525,1.525,0,0,1,1.779.28a1.526,1.526,0,0,1,1.506,1.54A1.527,1.527,0,0,1,1.779,3.36,1.525,1.525,0,0,1,.273,1.821H0A1.8,1.8,0,0,0,1.778,3.643,1.8,1.8,0,0,0,3.555,1.821,1.8,1.8,0,0,0,1.778,0,1.8,1.8,0,0,0,0,1.821Z" transform="translate(76.09 88.893)" fill="#fff"/>
    <path id="Path_255" data-name="Path 255" d="M.136,4.34H.275A4.079,4.079,0,0,1,1.436,1.472a3.9,3.9,0,0,1,5.614,0,4.127,4.127,0,0,1,0,5.739,3.906,3.906,0,0,1-5.614,0A4.084,4.084,0,0,1,.275,4.34H0A4.294,4.294,0,0,0,4.242,8.681,4.291,4.291,0,0,0,8.485,4.34,4.292,4.292,0,0,0,4.242,0,4.293,4.293,0,0,0,0,4.34Z" transform="translate(60.213 85.533)" fill="#fff"/>
    <path id="Path_256" data-name="Path 256" d="M.136,2.939H.275A2.679,2.679,0,0,1,1.036,1.06a2.561,2.561,0,0,1,3.678,0,2.708,2.708,0,0,1,0,3.76,2.561,2.561,0,0,1-3.678,0A2.678,2.678,0,0,1,.275,2.939H0a2.907,2.907,0,0,0,2.874,2.94,2.907,2.907,0,0,0,2.874-2.94A2.908,2.908,0,0,0,2.874,0,2.908,2.908,0,0,0,0,2.939Z" transform="translate(60.213 91.694)" fill="#fff"/>
    <path id="Path_257" data-name="Path 257" d="M.136,2.939H.273a2.664,2.664,0,0,1,.763-1.877,2.558,2.558,0,0,1,3.676,0,2.695,2.695,0,0,1,0,3.759,2.558,2.558,0,0,1-3.676,0A2.671,2.671,0,0,1,.273,2.939H0a2.905,2.905,0,0,0,2.874,2.94,2.907,2.907,0,0,0,2.872-2.94A2.907,2.907,0,0,0,2.874,0,2.905,2.905,0,0,0,0,2.939Z" transform="translate(45.434 36.817)" fill="#fff"/>
    <path id="Path_258" data-name="Path 258" d="M.14,1.261H.275A.975.975,0,0,1,1.235.28a.974.974,0,0,1,.958.981.969.969,0,0,1-.958.979.972.972,0,0,1-.96-.979H0A1.246,1.246,0,0,0,1.234,2.519,1.244,1.244,0,0,0,2.467,1.261,1.246,1.246,0,0,0,1.234,0,1.248,1.248,0,0,0,0,1.261Z" transform="translate(54.19 78.254)" fill="#fff"/>
    <path id="Path_259" data-name="Path 259" d="M.137.981H.275A.691.691,0,0,1,.958.28a.693.693,0,0,1,.685.7.7.7,0,0,1-.685.7.694.694,0,0,1-.683-.7H0a.969.969,0,0,0,.958.98.969.969,0,0,0,.957-.98A.97.97,0,0,0,.958,0,.97.97,0,0,0,0,.981Z" transform="translate(52.003 91.694)" fill="#fff"/>
    <path id="Path_260" data-name="Path 260" d="M.136.7H.277A.412.412,0,0,1,.685.281.415.415,0,0,1,1.1.7.409.409,0,1,1,.277.7H0a.693.693,0,0,0,.685.7A.691.691,0,0,0,1.369.7.691.691,0,0,0,.685,0,.693.693,0,0,0,0,.7Z" transform="translate(73.351 98.972)" fill="#fff"/>
    <path id="Path_261" data-name="Path 261" d="M6.16,3.219H6.3A3.186,3.186,0,0,0,3.15,0,3.186,3.186,0,0,0,0,3.219a3.185,3.185,0,0,0,3.15,3.22A3.187,3.187,0,0,0,6.3,3.219H6.022A2.951,2.951,0,0,1,5.18,5.3a2.827,2.827,0,0,1-4.063,0,2.985,2.985,0,0,1,0-4.156,2.825,2.825,0,0,1,4.063,0,2.948,2.948,0,0,1,.842,2.077Z" transform="translate(74.445 79.375)" fill="#fff"/>
    <path id="Path_262" data-name="Path 262" d="M.138,2.939H.274A2.672,2.672,0,0,1,1.037,1.06a2.558,2.558,0,0,1,3.676,0,2.7,2.7,0,0,1,0,3.761,2.561,2.561,0,0,1-3.676,0A2.678,2.678,0,0,1,.274,2.939H0A2.907,2.907,0,0,0,2.872,5.881,2.908,2.908,0,0,0,5.747,2.939,2.908,2.908,0,0,0,2.872,0,2.907,2.907,0,0,0,0,2.939Z" transform="translate(84.848 91.134)" fill="#fff"/>
    <path id="Path_263" data-name="Path 263" d="M.138,1.259H.273a.977.977,0,0,1,.961-.98.975.975,0,0,1,.957.98.972.972,0,0,1-.957.982.976.976,0,0,1-.961-.982H0A1.249,1.249,0,0,0,1.234,2.521,1.248,1.248,0,0,0,2.464,1.259,1.246,1.246,0,0,0,1.234,0,1.247,1.247,0,0,0,0,1.259Z" transform="translate(53.645 105.133)" fill="#fff"/>
    <path id="Path_264" data-name="Path 264" d="M.135,3.78H.274a3.527,3.527,0,0,1,1-2.475,3.376,3.376,0,0,1,4.842,0,3.563,3.563,0,0,1,0,4.95,3.373,3.373,0,0,1-4.842,0,3.53,3.53,0,0,1-1-2.475H0A3.737,3.737,0,0,0,3.7,7.56,3.737,3.737,0,0,0,7.39,3.78,3.738,3.738,0,0,0,3.7,0,3.738,3.738,0,0,0,0,3.78Z" transform="translate(42.697 64.815)" fill="#fff"/>
    <path id="Path_265" data-name="Path 265" d="M.136,2.38H.275A2.109,2.109,0,0,1,.876.9a2.015,2.015,0,0,1,2.9,0,2.114,2.114,0,0,1,.6,1.483,2.081,2.081,0,0,1-2.052,2.1A2.077,2.077,0,0,1,.275,2.38H0A2.353,2.353,0,0,0,2.327,4.758,2.351,2.351,0,0,0,4.652,2.38,2.352,2.352,0,0,0,2.327,0,2.354,2.354,0,0,0,0,2.38Z" transform="translate(35.033 86.094)" fill="#fff"/>
    <path id="Path_266" data-name="Path 266" d="M.139,1.259H.275A.968.968,0,0,1,1.232.28a.969.969,0,0,1,.958.979.97.97,0,0,1-.958.98.97.97,0,0,1-.957-.98H0A1.248,1.248,0,0,0,1.232,2.52,1.249,1.249,0,0,0,2.466,1.259,1.248,1.248,0,0,0,1.232,0,1.247,1.247,0,0,0,0,1.259Z" transform="translate(32.843 101.773)" fill="#fff"/>
    <path id="Path_267" data-name="Path 267" d="M.136.879H.274A.594.594,0,0,1,.86.279a.591.591,0,0,1,.583.6.591.591,0,0,1-.583.6.594.594,0,0,1-.586-.6H0a.869.869,0,0,0,.86.878.87.87,0,0,0,.86-.878A.869.869,0,0,0,.86,0,.868.868,0,0,0,0,.879Z" transform="translate(39.784 112.794)" fill="#fff"/>
    <path id="Path_268" data-name="Path 268" d="M.138.879H.275a.6.6,0,0,1,.586-.6.6.6,0,0,1,.586.6.592.592,0,0,1-.586.6.593.593,0,0,1-.586-.6H0a.87.87,0,0,0,.86.879A.87.87,0,0,0,1.719.879.869.869,0,0,0,.86,0,.87.87,0,0,0,0,.879Z" transform="translate(61.133 42.417)" fill="#fff"/>
    <path id="Path_269" data-name="Path 269" d="M.138.879H.275A.594.594,0,0,1,.86.279a.6.6,0,0,1,0,1.2.6.6,0,0,1-.585-.6H0a.868.868,0,0,0,.859.878.869.869,0,0,0,.86-.878A.867.867,0,0,0,.859,0,.867.867,0,0,0,0,.879Z" transform="translate(12.239 41.119)" fill="#fff"/>
    <path id="Path_270" data-name="Path 270" d="M.135,2.1H.273A1.8,1.8,0,0,1,2.051.283,1.8,1.8,0,0,1,3.829,2.1,1.8,1.8,0,0,1,2.051,3.921,1.8,1.8,0,0,1,.273,2.1H0A2.074,2.074,0,0,0,2.052,4.2,2.075,2.075,0,0,0,4.1,2.1,2.076,2.076,0,0,0,2.052,0,2.076,2.076,0,0,0,0,2.1Z" transform="translate(26.824 70.414)" fill="#fff"/>
    <path id="Path_271" data-name="Path 271" d="M1.78.98h.138A.969.969,0,0,0,.959,0,.969.969,0,0,0,0,.98a.971.971,0,0,0,.959.98A.97.97,0,0,0,1.918.98H1.644a.693.693,0,0,1-.685.7A.692.692,0,0,1,.275.98a.693.693,0,0,1,.684-.7.694.694,0,0,1,.685.7Z" transform="translate(22.442 114.093)" fill="#fff"/>
    <path id="Path_272" data-name="Path 272" d="M.138,1.541H.274A1.247,1.247,0,0,1,1.506.28a1.245,1.245,0,0,1,1.229,1.26A1.248,1.248,0,0,1,1.506,2.8,1.249,1.249,0,0,1,.274,1.541H0A1.524,1.524,0,0,0,1.506,3.08a1.524,1.524,0,0,0,1.506-1.54A1.525,1.525,0,0,0,1.506,0,1.524,1.524,0,0,0,0,1.541Z" transform="translate(60.761 54.176)" fill="#fff"/>
    <path id="Path_273" data-name="Path 273" d="M.134,3.219h.14a2.959,2.959,0,0,1,.841-2.079,2.825,2.825,0,0,1,4.063,0,2.987,2.987,0,0,1,0,4.157,2.827,2.827,0,0,1-4.063,0A2.959,2.959,0,0,1,.274,3.219H0A3.182,3.182,0,0,0,3.147,6.438,3.183,3.183,0,0,0,6.293,3.219,3.184,3.184,0,0,0,3.147,0,3.183,3.183,0,0,0,0,3.219Z" transform="translate(42.151 49.137)" fill="#fff"/>
    <path id="Path_274" data-name="Path 274" d="M.134.981h.14a.688.688,0,0,1,.682-.7.69.69,0,0,1,.683.7.692.692,0,0,1-.683.7.691.691,0,0,1-.682-.7H0a.967.967,0,0,0,.956.98.967.967,0,0,0,.957-.98A.969.969,0,0,0,.956,0,.969.969,0,0,0,0,.981Z" transform="translate(27.919 58.655)" fill="#fff"/>
    <path id="Path_275" data-name="Path 275" d="M.14,1.261H.277A.97.97,0,0,1,1.234.28a.972.972,0,0,1,.957.98.971.971,0,0,1-.957.981.969.969,0,0,1-.957-.981H0A1.251,1.251,0,0,0,1.234,2.523,1.246,1.246,0,0,0,2.465,1.261,1.244,1.244,0,0,0,1.234,0,1.249,1.249,0,0,0,0,1.261Z" transform="translate(15.873 73.214)" fill="#fff"/>
    <path id="Path_276" data-name="Path 276" d="M.137.7H.272A.416.416,0,0,1,.685.279a.42.42,0,0,1,0,.841A.417.417,0,0,1,.272.7H0a.692.692,0,0,0,.685.7A.691.691,0,0,0,1.367.7.69.69,0,0,0,.685,0,.69.69,0,0,0,0,.7Z" transform="translate(0 83.855)" fill="#fff"/>
    <path id="Path_277" data-name="Path 277" d="M.137.979H.274A.693.693,0,0,1,.958.28a.693.693,0,0,1,.685.7.7.7,0,0,1-.685.7.694.694,0,0,1-.685-.7H0a.969.969,0,0,0,.958.98.968.968,0,0,0,.959-.98A.968.968,0,0,0,.958,0,.969.969,0,0,0,0,.979Z" transform="translate(12.589 57.536)" fill="#fff"/>
    <path id="Path_278" data-name="Path 278" d="M.137,3.78H.275a3.528,3.528,0,0,1,1-2.475,3.363,3.363,0,0,1,4.836,0,3.554,3.554,0,0,1,0,4.951,3.366,3.366,0,0,1-4.836,0,3.532,3.532,0,0,1-1-2.475H0A3.736,3.736,0,0,0,3.694,7.558,3.736,3.736,0,0,0,7.39,3.78,3.736,3.736,0,0,0,3.694,0,3.737,3.737,0,0,0,0,3.78Z" transform="translate(26.275 40.737)" fill="#fff"/>
    <path id="Path_279" data-name="Path 279" d="M.135,2.94H.274A2.672,2.672,0,0,1,1.035,1.06a2.557,2.557,0,0,1,3.677,0,2.7,2.7,0,0,1,0,3.762,2.562,2.562,0,0,1-3.677,0A2.683,2.683,0,0,1,.274,2.94H0A2.906,2.906,0,0,0,2.873,5.879,2.906,2.906,0,0,0,5.745,2.94,2.906,2.906,0,0,0,2.873,0,2.906,2.906,0,0,0,0,2.94Z" transform="translate(10.948 84.975)" fill="#fff"/>
    <path id="Path_280" data-name="Path 280" d="M.138,1.819H.275A1.526,1.526,0,0,1,1.781.279a1.526,1.526,0,0,1,1.505,1.54A1.526,1.526,0,0,1,1.781,3.36,1.526,1.526,0,0,1,.275,1.819H0A1.8,1.8,0,0,0,1.78,3.637,1.8,1.8,0,0,0,3.558,1.819,1.8,1.8,0,0,0,1.78,0,1.8,1.8,0,0,0,0,1.819Z" transform="translate(18.611 99.534)" fill="#fff"/>
    <path id="Path_281" data-name="Path 281" d="M.138,3.5H.274A3.245,3.245,0,0,1,1.2,1.226a3.095,3.095,0,0,1,4.452,0,3.26,3.26,0,0,1,0,4.55,3.095,3.095,0,0,1-4.452,0A3.249,3.249,0,0,1,.274,3.5H0A3.462,3.462,0,0,0,3.423,7,3.46,3.46,0,0,0,6.844,3.5,3.461,3.461,0,0,0,3.423,0,3.464,3.464,0,0,0,0,3.5Z" transform="translate(37.769 92.813)" fill="#fff"/>
    <path id="Path_282" data-name="Path 282" d="M.137.69H.275a.41.41,0,0,1,.4-.411.406.406,0,0,1,.4.411.406.406,0,0,1-.4.412A.41.41,0,0,1,.275.69H0a.683.683,0,0,0,.677.691A.685.685,0,0,0,1.354.69.684.684,0,0,0,.677,0,.683.683,0,0,0,0,.69Z" transform="translate(33.672 127.82)" fill="#fff"/>
    <path id="Path_283" data-name="Path 283" d="M.14.7H.277A.413.413,0,0,1,.686.28a.419.419,0,0,1,0,.838A.413.413,0,0,1,.277.7H0a.692.692,0,0,0,.686.7A.69.69,0,0,0,1.37.7.69.69,0,0,0,.686,0,.692.692,0,0,0,0,.7Z" transform="translate(15.873 130.332)" fill="#fff"/>
    <path id="Path_284" data-name="Path 284" d="M217.573,17.136a1.87,1.87,0,1,1,1.868-1.868A1.87,1.87,0,0,1,217.573,17.136Zm0-3.25a1.382,1.382,0,1,0,1.382,1.382A1.384,1.384,0,0,0,217.573,13.886ZM231.8,40.3a4.146,4.146,0,1,1-4.147-4.144A4.144,4.144,0,0,1,231.8,40.3Zm-7.8,0a3.658,3.658,0,1,0,1.07-2.585A3.662,3.662,0,0,0,223.995,40.3Zm-21.977-9.77c6.332,3.658,13.791,3.125,14.491,3.2a3.075,3.075,0,0,1,2.9,2.727c.051,1.377-1.395,2.391-3.224,2.255-.791-.045-9.372-.969-15.537-6.1a29.564,29.564,0,0,1-8.984-11.826A28.868,28.868,0,0,0,202.017,30.531Zm-60.064-9.765A1.166,1.166,0,1,1,143.09,19.6,1.152,1.152,0,0,1,141.953,20.766Zm0-2.054a.888.888,0,1,0,.864.887A.882.882,0,0,0,141.953,18.712Zm-5.022-7.374a2.006,2.006,0,1,1,1.962-2.005A1.986,1.986,0,0,1,136.931,11.338Zm0-3.733a1.727,1.727,0,1,0,1.688,1.726A1.71,1.71,0,0,0,136.931,7.606Zm-6.018,37.331a.7.7,0,1,1,.683-.7A.693.693,0,0,1,130.913,44.937Zm0-1.12a.42.42,0,1,0,.408.421A.417.417,0,0,0,130.913,43.817Zm52.515,73.023c2.177-4.129,3.585-10.486,3.763-16.97a95.038,95.038,0,0,0-3.105-25.758,95.093,95.093,0,0,1,7.188,25.577c.854,6.809.488,14.127-1.465,19.763a25.664,25.664,0,0,1-5.674,9.769c-2.642,2.6-6.155,2.433-7.2.485-1.1-2.016-.241-4.591,1.448-6.286A21.26,21.26,0,0,0,183.428,116.839ZM207,24.78a21.191,21.191,0,0,1-10.677-4.591,20.05,20.05,0,0,1-5.857-8.337A19.384,19.384,0,0,0,197.7,18.1c4.306,2.237,9.172,1.636,9.629,1.694,1,.08,1.857,1.273,1.907,2.65A2.121,2.121,0,0,1,207,24.78Zm-69.337,5.692a.887.887,0,1,1-.867.886A.878.878,0,0,1,137.663,30.471Zm0,1.494a.607.607,0,1,0-.593-.608A.6.6,0,0,0,137.663,31.965ZM175.221,98.37c1.074.447,6.466-6.636,5.921-16.665a83.444,83.444,0,0,0-2.256-18.647,83.19,83.19,0,0,1,4.974,18.473c.663,4.873.635,10.1-.743,14.227a13.8,13.8,0,0,1-4.637,6.977c-2.267,1.653-4.824,1.031-5.122-.341C172.952,100.852,173.982,99.309,175.221,98.37Zm27.07-90.987A6.744,6.744,0,0,1,195.546.639c0-.108.012-.217.017-.326h.486c0,.108-.017.215-.017.326A6.258,6.258,0,0,0,202.29,6.9a6.235,6.235,0,0,0,4.425-1.833A6.24,6.24,0,0,0,208.55.639c0-.111-.011-.217-.017-.326h.488c0,.108.016.217.016.326A6.743,6.743,0,0,1,202.291,7.383Zm-51.126,13.2a2.381,2.381,0,1,1-2.325,2.379A2.353,2.353,0,0,1,151.165,20.579Zm0,4.479a2.108,2.108,0,0,0,1.452-3.582,2.018,2.018,0,0,0-2.9,0,2.105,2.105,0,0,0-.6,1.483A2.078,2.078,0,0,0,151.165,25.058Zm-.547-22.3a1.034,1.034,0,0,1-.782-.365,2.094,2.094,0,0,1-1.407.55A2.168,2.168,0,0,1,146.285.746,2.191,2.191,0,0,1,146.421,0h.285a1.931,1.931,0,0,0-.147.746,1.894,1.894,0,0,0,1.871,1.914,1.84,1.84,0,0,0,1.253-.5,1.071,1.071,0,0,1,.608-1.491A2,2,0,0,0,150.14,0h.286a2.191,2.191,0,0,1,.134.613.453.453,0,0,1,.058-.006,1.062,1.062,0,0,1,1.051,1.074A1.063,1.063,0,0,1,150.618,2.755Zm-.775-1.073a.815.815,0,0,0,.042.249,1.9,1.9,0,0,0,.391-.959A.794.794,0,0,0,149.842,1.681Zm.775-.794a.3.3,0,0,0-.059.006,2.214,2.214,0,0,1-.528,1.3.775.775,0,0,0,.586.283.794.794,0,0,0,0-1.587ZM148.292,14a1.048,1.048,0,1,1,1.049,1.074A1.059,1.059,0,0,1,148.292,14Zm1.048.793a.793.793,0,1,0-.775-.793A.786.786,0,0,0,149.341,14.791Zm79.69,9.9a1.869,1.869,0,1,1,1.871,1.871A1.869,1.869,0,0,1,229.031,24.7Zm1.871,1.381a1.381,1.381,0,1,0-1.383-1.381A1.381,1.381,0,0,0,230.9,26.076ZM134.573,66.356a47.2,47.2,0,0,0,12.573-7.969,89.7,89.7,0,0,0,14.6-16.2,90.478,90.478,0,0,1-12.487,18.461,50.688,50.688,0,0,1-12.456,10.468,27.807,27.807,0,0,1-8.327,3.29c-2.853.5-5.162-1.031-5.049-2.728.1-1.754,1.908-3.062,4.027-3.438A27.222,27.222,0,0,0,134.573,66.356Zm170.532-12.48a1.435,1.435,0,0,1,.943,1.7,1.375,1.375,0,0,1-1.614,1.064,1.393,1.393,0,0,1-.987-1.715A1.337,1.337,0,0,1,305.105,53.876ZM101.791,18.347a.449.449,0,0,1-.045.62.413.413,0,0,1-.589-.083.46.46,0,0,1,.047-.62A.4.4,0,0,1,101.791,18.347ZM147.516,35.51a1.447,1.447,0,1,1-1.413,1.447A1.431,1.431,0,0,1,147.516,35.51Zm0,2.613a1.166,1.166,0,1,0-1.142-1.166A1.155,1.155,0,0,0,147.516,38.123Zm159.794,9.424a1.273,1.273,0,0,1,.662,1.648,1.3,1.3,0,0,1-1.617.765,1.232,1.232,0,0,1-.663-1.649A1.25,1.25,0,0,1,307.311,47.547Zm1.782-3.9a1.244,1.244,0,0,1,1.163-2.2,1.249,1.249,0,0,1-1.163,2.2Zm-5.2,29.039a3.531,3.531,0,0,1,2.061,6.7,3.506,3.506,0,1,1-2.061-6.7Zm-.212-11.74a2.251,2.251,0,0,1,1.888,2.421,2.15,2.15,0,1,1-4.281-.323A2.181,2.181,0,0,1,303.681,60.946ZM232.527,5.433a3.781,3.781,0,0,1-2.509-.961,1.866,1.866,0,1,1-1.393-3.1c.036,0,.07.008.1.01a3.8,3.8,0,0,1,.238-1.067h.511a3.343,3.343,0,0,0-.269,1.158A1.863,1.863,0,0,1,230.5,3.238a1.833,1.833,0,0,1-.2.828,3.318,3.318,0,0,0,2.235.879,3.337,3.337,0,0,0,3.331-3.333,3.284,3.284,0,0,0-.266-1.3h.51a3.752,3.752,0,0,1,.243,1.3A3.819,3.819,0,0,1,232.527,5.433Zm-3.8-3.566a.856.856,0,0,0-.106-.012,1.383,1.383,0,1,0,1.048,2.273A3.789,3.789,0,0,1,228.731,1.867Zm.5.138a3.29,3.29,0,0,0,.693,1.669,1.354,1.354,0,0,0,.078-.435A1.38,1.38,0,0,0,229.235,2.006ZM103.8,20.873a.583.583,0,0,1-.13.813.571.571,0,0,1-.786-.182.6.6,0,0,1,.13-.811A.554.554,0,0,1,103.8,20.873Zm4.265,11.465a.773.773,0,0,1-.906-.609.829.829,0,0,1,.53-.978.752.752,0,0,1,.932.6A.8.8,0,0,1,108.068,32.338Zm-1.614-5.218a.7.7,0,0,1,.909.438.715.715,0,0,1-.373.948.724.724,0,0,1-.906-.441A.736.736,0,0,1,106.454,27.12Zm-.723-3.2a.718.718,0,0,1-.276.957.656.656,0,0,1-.887-.328.663.663,0,1,1,1.163-.629Zm4.1,12.092a1.209,1.209,0,1,1-2.4.186,1.289,1.289,0,0,1,1.061-1.391A1.234,1.234,0,0,1,109.835,36.015ZM107.217,45.4a2.137,2.137,0,0,1-1.089-2.444,2.053,2.053,0,0,1,2.245-1.4,1.874,1.874,0,0,1,1.316,2.516A1.814,1.814,0,0,1,107.217,45.4ZM253.008,20.062a3.494,3.494,0,1,1,3.494-3.494A3.5,3.5,0,0,1,253.008,20.062Zm0-6.5a3.008,3.008,0,1,0,3.008,3.009A3.017,3.017,0,0,0,253.008,13.558Zm-8.94,22.923a2.032,2.032,0,1,1,2.031-2.03A2.027,2.027,0,0,1,244.068,36.482Zm0-3.576a1.544,1.544,0,1,0,1.543,1.545A1.545,1.545,0,0,0,244.068,32.906Zm7.639,20.481a1.544,1.544,0,1,1-1.543,1.545A1.545,1.545,0,0,1,251.707,53.387Zm0,2.6a1.058,1.058,0,1,0-1.054-1.057A1.059,1.059,0,0,0,251.707,55.988ZM233.472,59.9c-1.313.556-17.243-.264-26.646-10.167a55.864,55.864,0,0,1-13.6-20.594c-.09-.11,6.434,10.624,16.631,16.626,10.154,6.731,21.521,4.416,22.5,4.214,2.315-.436,4.805,1.42,5.545,4.073S236.668,59.359,233.472,59.9Zm30.263,18.68a1.219,1.219,0,1,1,1.22-1.218A1.22,1.22,0,0,1,263.736,78.583Zm0-1.951a.731.731,0,1,0,.734.732A.732.732,0,0,0,263.736,76.632ZM234.15,62.165a2.519,2.519,0,1,1-2.517,2.519A2.518,2.518,0,0,1,234.15,62.165Zm0,4.551a2.032,2.032,0,1,0-2.03-2.031A2.035,2.035,0,0,0,234.15,66.716ZM496.67,141.7c-1.123,10.313-8.549,20.665-19.3,22.653-10.184,2.067-22.082-2.712-25.952-12.731-4.126-9.267-.007-22.7,10.681-24.85,10.575-2.738,20.334,9.723,14.573,18.78,5.274-9.365-4.829-20.563-14.309-17.582-9.566,2.323-12.688,14.637-8.689,22.674,3.728,8.63,14.276,12.2,22.866,10.117,9.029-2.2,14.493-10.613,15.247-19.632a31.822,31.822,0,0,0-8.374-24.552c-5.9-5.889-15.824-8.783-24.567-9.482-17.355-1.287-35.46,7.134-47.948,19.227a81.892,81.892,0,0,1-10.007,13.3c-15.243,16.5-36.036,25.891-57.707,29.391,22.529,14.864,40.612,36.816,48.6,62.707a50.9,50.9,0,0,0,16.179,12.408c7.489,3.584,16.36,5.983,24.495,4.72,8.046-1.66,15.583-7.252,18.744-15.053a22.575,22.575,0,0,0,1.24-13.254l-.372.072c-.8-4.082-2.948-8.126-6.5-10.449-3.349-2.71-8.506-2.822-10.694,1.19-2.7,3.527,1.583,9.354,5.777,7.311a3.659,3.659,0,0,0,1.465-5.328c-1.337-1.808-4.717-1.445-5,1.122.14-2.58,3.673-3.22,5.22-1.305a4.089,4.089,0,0,1-1.419,6.018c-4.732,2.6-10.007-3.95-7.039-8.369a7.836,7.836,0,0,1,5.792-4.064,10.549,10.549,0,0,1,3.549.467c-5.8-3.41-13.536-3.751-19,.516-6.871,4.906-8.766,16.464-1.9,22.347,6.144,6.684,19.583,2.937,19.165-7.1.724,10.029-12.951,14.391-19.573,7.556-7.337-6-5.73-18.309,1.558-23.776,7.281-5.961,18.654-4.227,25.037,2.319,6.616,6.564,8.383,17.005,4.982,25.641-3.313,8.691-11.393,15.067-20.43,17.15-9.338,1.606-18.384-.76-26.679-4.41A52.879,52.879,0,0,1,393.8,239.43c3.26,15.6,3.795,31.966-2.882,47.387A54.444,54.444,0,0,1,369.8,309.274c-6.446,5.125-11.816,11.6-14.026,19.44-2.641,9.043-.436,22.469,9.889,24.666,4.657,1.075,10.487-.057,13.275-4.159,2.767-3.917,2.872-10.266-.883-13.7-3.249-3.687-10.714-3.258-12.686,1.822-2.883,4.72,2.883,11.672,8.094,8.237-5.045,3.716-11.552-3.189-8.658-8.478,1.976-5.632,10.111-6.532,14.1-2.47,4.405,3.83,4.616,10.846,1.56,15.627-3.257,5.061-9.825,6.543-15.326,5.523-12.614-2.489-15.521-17.809-12.932-27.991a37.351,37.351,0,0,1,6.324-13.273A60.826,60.826,0,0,1,351.5,316.5c-16.346,3.993-35.857-2-44.63-17.119-9.026-14.044-8.778-34.879,4.143-46.542,11.846-11.686,34.705-12.252,43.874,2.8,4.127,7.087,4.884,16.487.427,23.546a20.247,20.247,0,0,1-20.929,9.394c8.01,1.3,16.565-2.634,20.4-9.708,4.144-6.915,3.134-15.991-.939-22.578-8.992-13.987-30.456-12.776-41.134-1.683-11.624,10.985-11.29,30.173-2.746,42.767,8.44,13.5,25.509,18.229,40.479,14.318,14.93-3.593,28.628-13.742,34.914-27.5,5.666-13.678,4.7-30.688.775-45.359a94.886,94.886,0,0,0-5.769-15.416,79.363,79.363,0,0,1-4.226-7.956c-11.46-19.42-29.333-35.095-49.607-44.842l.034-.069a128.7,128.7,0,0,1-14.878-.468,133.407,133.407,0,0,1-42.2-10.329c10.042,34.557-58.832,55.666-17.873,82.345-8.148-3.823-15.808-11.986-15.054-22.22.736-10.026,7.366-18.038,13.618-24.835,6.163-6.447,10.92-14.244,12.005-22.272,1-7.9-2.844-16.089-8.4-20.828l.021-.023a139.1,139.1,0,0,1-24.75-18.3,29.512,29.512,0,0,1,.018,12.262c-1.694,11.208-13.194,20.047-24.392,17.623-5.369-.608-11.16-4.427-11.819-10.361-.981-5.725,3.051-11.3,8.252-12.863,4.834-1.661,12.121.013,13.111,5.823.7,5.86-6.046,9.856-10.865,7.208,4.973,2.438,11.144-1.846,10.258-7.114-1.055-5.163-7.781-6.436-12.1-4.758-4.619,1.6-7.867,6.63-6.834,11.414.789,4.916,5.494,7.776,10.326,8.215a18.122,18.122,0,0,0,20.45-15.909,27.8,27.8,0,0,0-4.137-19.3c-18.082-19.455-31.27-42.214-40.354-66.591a2.43,2.43,0,0,1-2.2-.47,7.907,7.907,0,0,1-2.6-4,13.212,13.212,0,0,1-.532-2.584,1.866,1.866,0,0,1-1.5-1.49,46.23,46.23,0,0,0-.251,6.431,27.41,27.41,0,0,0,1.214,7.524,44.153,44.153,0,0,0,.223-10.4A43.847,43.847,0,0,1,177.1,65.038a11.336,11.336,0,0,1-.083,3.6,13.481,13.481,0,0,0,1.808,2.043,3.194,3.194,0,0,1,.812,3.606c-.551,1.049-2.312,1.182-3.752-.031,0,.007,0,.013,0,.019a7.883,7.883,0,0,1-7.041,7.838A6.633,6.633,0,0,1,170.7,87.75c-.368,3.408-3.621,5.6-6.634,5.95-6.285,1.391-12.739-3.681-13.69-10.117a17.326,17.326,0,0,1,.009-7.038,78.157,78.157,0,0,1-13.889,10.5l.012.014a14.242,14.242,0,0,0-4.714,11.958c.611,4.608,3.282,9.086,6.737,12.786,3.511,3.9,7.232,8.5,7.644,14.259.424,5.875-3.874,10.564-8.448,12.759,22.989-15.318-15.662-27.439-10.026-47.28A73.54,73.54,0,0,1,104,97.479a70.351,70.351,0,0,1-8.349.269l.018.038a65.86,65.86,0,0,0-27.867,25.789,46.209,46.209,0,0,1-2.3,4.431,55.257,55.257,0,0,0-3.282,8.945c-2.2,8.424-2.746,18.188.434,26.042,3.529,7.9,11.215,13.724,19.595,15.787,8.4,2.246,17.984-.47,22.719-8.221,4.794-7.229,4.983-18.244-1.54-24.554-5.994-6.368-18.039-7.065-23.088.968-2.286,3.781-2.853,8.99-.526,12.962a11.107,11.107,0,0,0,11.452,5.572,11.27,11.27,0,0,1-11.748-5.392c-2.5-4.053-2.077-9.451.24-13.519,5.146-8.645,17.977-8.319,24.623-1.609,7.253,6.7,7.39,18.658,2.327,26.722-4.926,8.678-15.876,12.122-25.048,9.827a33.7,33.7,0,0,1-3.957-1.147,21.635,21.635,0,0,1,3.558,7.631c1.453,5.847-.179,14.644-7.261,16.071-3.087.586-6.772-.264-8.6-3.17-1.715-2.747-1.6-6.773.875-8.973,2.239-2.332,6.8-1.814,7.912,1.419,1.625,3.037-2.027,7-4.859,4.867,2.926,1.972,6.161-2.018,4.542-4.728-1.1-2.915-5.3-3.163-7.119-1.046-2.108,1.97-2.048,5.615-.495,7.865,1.562,2.356,4.836,3,7.451,2.387,5.794-1.259,7.031-8.97,5.55-14.16a22.45,22.45,0,0,0-7.9-11.189,30.969,30.969,0,0,1-11.819-12.866c-3.75-8.862-3.444-18.267-1.609-27.227a29.58,29.58,0,0,1-7.066,4.624c-4.655,2.094-9.732,3.454-14.974,2.531a16.251,16.251,0,0,1-11.464-9.844,14.1,14.1,0,0,1,2.8-14.722c3.584-3.757,9.967-4.755,14.053-1.33,4.09,3.139,4.993,10.2.874,13.649-3.718,3.925-11.394,1.421-10.985-4.338-.235,5.761,7.3,7.913,10.756,4.074,3.852-3.376,2.787-10.015-1.068-12.83-3.846-3.07-9.7-1.989-12.891,1.518A12.845,12.845,0,0,0,25.7,134.05a14.674,14.674,0,0,0,10.52,8.643c4.564.722,9.542-.654,13.746-2.713a28.654,28.654,0,0,0,9.091-7.151c4.485-14.853,14.628-27.444,27.264-35.973-12.163-2.01-23.832-7.4-32.387-16.875a46.959,46.959,0,0,1-5.612-7.625C41.308,65.412,31.148,60.57,21.4,61.308c-4.9.4-10.475,2.065-13.784,5.446a18.526,18.526,0,0,0-4.7,14.095c.424,5.178,3.49,10.012,8.56,11.272,4.819,1.2,10.741-.854,12.833-5.808,2.243-4.613.492-11.686-4.878-13.019-5.322-1.71-10.991,4.717-8.029,10.1-3.235-5.2,2.241-12.355,8.179-10.784,6,1.237,8.309,8.948,5.994,14.267-2.174,5.75-8.851,8.5-14.566,7.309C4.97,93.041.806,87.1.175,81.177A21.736,21.736,0,0,1,5.13,64.309a26.656,26.656,0,0,1,15.876-7.775c8.632-1.022,15.8.22,22.316,4.252-3.139-10.88-2.568-22.8,2.768-32.942C54.21,11.416,73.877.344,91.575,6.409c17.282,5.107,29.141,27.2,19.624,43.836-4.252,7.918-12.636,13.687-21.527,13.607-8.938.226-17.147-6.215-19.891-14.643,2.976,8.362,11.255,14.4,19.882,13.936,8.565-.14,16.514-5.962,20.321-13.569,8.592-15.961-3.234-36.227-19.224-40.47C78.4,5.194,65.178,10.458,56.5,19.807a13.034,13.034,0,0,1,6.21-1.33,9.47,9.47,0,0,1,7,5.026c3.591,5.467-2.79,13.564-8.509,10.352-2.565-1.346-3.615-5.138-1.716-7.443,1.871-2.367,6.142-1.579,6.31,1.614-.344-3.176-4.433-3.624-6.046-1.389a4.581,4.581,0,0,0,1.77,6.592c5.073,2.528,10.25-4.681,6.985-9.044-2.645-4.962-8.881-4.825-12.932-1.472a16.691,16.691,0,0,0-4.643,4.779c-.406.736-.791,1.48-1.141,2.243A35.683,35.683,0,0,0,48.314,33.2a23.673,23.673,0,0,0-.6,2.437l-.194-.039c-4.1,14.1.477,30.06,10.429,40.511,11.484,12.076,29.1,16.285,45.4,14.345a69.236,69.236,0,0,0,43.291-21.966c10.194-11.045,17.413-24.414,22.109-38.822a1.85,1.85,0,0,1-2.815-.4,39.637,39.637,0,0,1-2.347,4.025,1.632,1.632,0,0,1,.174-.018,2.567,2.567,0,0,1,0,5.132,2.414,2.414,0,0,1-1.163-.307,58.017,58.017,0,0,1-11.322,12.361,30.718,30.718,0,0,1-13.014,6.306,25.832,25.832,0,0,1-8.019.078c-2.448-.726-3.863-2.613-3.214-4.039a3.637,3.637,0,0,1,4.419-1.56c.7.442,9.914,2.314,18.283-3.175a56.461,56.461,0,0,0,12.512-10.2,2.569,2.569,0,0,1-.936-1.51,30.9,30.9,0,0,1-2.789,2.93c-6.139,6.436-16.283,6.839-17.121,6.486-2.035-.357-3.345-1.913-2.928-3.437a3.164,3.164,0,0,1,3.55-2.259,20.28,20.28,0,0,0,14.8-3.066,33.947,33.947,0,0,0,8.85-8.509,1.844,1.844,0,0,1-.023-.23,1.868,1.868,0,0,1,1.431-1.813c.279-.438.42-.687.409-.672,0-.014-.084.223-.254.644a1.785,1.785,0,0,1,.282-.029,1.867,1.867,0,0,1,1.818,1.447q.706-2.282,1.332-4.6c-.329-1.588-.655-3.177-.954-4.771a31.379,31.379,0,0,1-6.849,9.893c-5.277,5.685-14.215,6.155-14.951,5.836a2.794,2.794,0,0,1-2.491-3.357,2.949,2.949,0,0,1,3.112-2.338,17.281,17.281,0,0,0,12.629-2.42,30.1,30.1,0,0,0,8.448-8.2c-.144-.772-.276-1.546-.413-2.319a15.951,15.951,0,0,1-2.861,2.966,17.12,17.12,0,0,1-8.72,3.5c-1.029.08-1.838-.5-1.811-1.292a1.743,1.743,0,0,1,1.626-1.565,16.285,16.285,0,0,0,8.134-1.838,14.865,14.865,0,0,0,3.475-2.65c-.179-1.026-.356-2.052-.522-3.079a9.517,9.517,0,0,1-1.735,1.152,7.407,7.407,0,1,1-4.129-9.946A3.9,3.9,0,0,1,161.612.19c0-.062.007-.124.01-.186h.273c0,.061-.009.123-.009.186a3.629,3.629,0,0,0,1.029,2.543A3.456,3.456,0,0,0,165.4,3.784a3.437,3.437,0,0,0,1.882-.565c-.127-.967-.266-1.934-.383-2.9h2c0-.043.012-.083.012-.127,0-.063-.006-.124-.01-.186h.275c0,.062.011.124.011.186,0,.044-.011.083-.012.127h5.664c.01-.1.023-.208.034-.313h10.395c-.012.1-.028.208-.04.313h.188q.137,1.35.286,2.7a4.12,4.12,0,0,1,3.421-1.842,4.2,4.2,0,0,1,4.151,4.244,4.247,4.247,0,0,1-2.609,3.941,3.2,3.2,0,0,1-3.788,2.685,237.083,237.083,0,0,0,8.681,37.608,1.879,1.879,0,1,1,.406,1.243c8.358,25.514,21.334,49.195,39.763,68.712a124.357,124.357,0,0,0,77.129,38.261c29.031,3.38,60.426-3.954,80.882-24.987,17.734-18.2,25.883-46,18.585-70.561l-.346.07a41.41,41.41,0,0,0-1.073-4.246,60.719,60.719,0,0,0-2.634-6.037c-.625-1.327-1.312-2.625-2.034-3.909a29.376,29.376,0,0,0-8.27-8.323c-7.219-5.839-18.331-6.079-23.04,2.567-5.817,7.6,3.407,20.154,12.444,15.751,4.04-1.848,6.076-7.659,3.156-11.479-2.878-3.9-10.161-3.112-10.774,2.416.3-5.561,7.91-6.934,11.242-2.811,3.384,4.017,1.51,10.619-3.058,12.967-10.191,5.594-21.56-8.509-15.161-18.034a16.868,16.868,0,0,1,12.478-8.754,23.683,23.683,0,0,1,11.065,2.318C380.847,18.525,357.3,9.359,335.272,16.169c-28.489,7.393-49.559,42.695-34.252,70.494,6.789,13.249,20.949,23.389,36.206,23.635,15.376.808,30.125-9.709,35.429-24.272-4.9,14.677-19.52,25.892-35.443,25.5-15.841.141-30.777-9.908-38.352-23.7-16.956-28.979,4.172-67.457,34.961-76.352C365.353.911,400.4,20.195,414.865,48.809c9.5,17.654,10.518,38.419,4.93,57.367,11.613-7.02,24.382-9.172,39.759-7.391,10.276,1.476,20.433,5.43,28.286,13.539A37.248,37.248,0,0,1,496.67,141.7ZM161.542,36.058a2.3,2.3,0,0,0,.633,1.4,2.569,2.569,0,0,0,.25.211c1.113-1.2,1.727-1.97,1.707-1.959.01-.012-.471.82-1.383,2.162a2.15,2.15,0,0,0,1.007.256,2.2,2.2,0,0,0,1.581-.669,2.321,2.321,0,0,0,0-3.233,2.2,2.2,0,0,0-1.581-.669,2.118,2.118,0,0,0-.373.039C162.828,34.4,162.217,35.232,161.542,36.058ZM160.028,2.832a6.909,6.909,0,1,0,4.887,11.794,6.981,6.981,0,0,0,1.14-1.511,12.1,12.1,0,0,1-3.3.934,1.207,1.207,0,0,1-1.255-1.339c.028-.789.508-1.475,1.072-1.522a12.084,12.084,0,0,0,4.29-.5,6.9,6.9,0,0,0-6.837-7.858Zm7.289.677a3.69,3.69,0,0,1-1.921.552,3.654,3.654,0,0,1-.726-.075,7.379,7.379,0,0,1,2.755,5.753,7.5,7.5,0,0,1-.038.752c.2-.083.4-.174.592-.277.1-.046.19-.1.285-.147Q167.752,6.793,167.317,3.509Zm8.259,48.19a21.155,21.155,0,0,1-.045-2.627,1.372,1.372,0,0,0,.045,2.627Zm-2.352,27.806a7.382,7.382,0,0,0,2.166-5.231c0-.175-.018-.346-.031-.516l-.119-.14c-1.106,2-2.393,3.328-3.059,3.227-1.508.718-2.956-.029-3.05-1.109a2.537,2.537,0,0,1,1.2-2.536c.277.217,1.669-.75,2.884-2.757A15.4,15.4,0,0,1,172.4,68.4c-.007-.022-.013-.047-.021-.07a7.393,7.393,0,0,0-9.62,11.174,7.593,7.593,0,0,0,.6.535,6.677,6.677,0,0,1,2.7.324,6.474,6.474,0,0,1,2.288,1.289A7.372,7.372,0,0,0,173.223,79.505Zm-8.94,1.161a7.344,7.344,0,0,0,2.686.926,5.6,5.6,0,0,0-1.133-.562A5.816,5.816,0,0,0,164.284,80.667ZM167.5,26.891a1.36,1.36,0,0,0-.515.1c-.2.465-.46,1.048-.786,1.718a1.369,1.369,0,0,0,2.052.718.939.939,0,0,1-.121.015,1.074,1.074,0,0,1,0-2.147,1.025,1.025,0,0,1,.428.1A1.369,1.369,0,0,0,167.5,26.891Zm1.379,1.347a.77.77,0,0,0-.75-.659.793.793,0,0,0,0,1.585.764.764,0,0,0,.656-.393,1.382,1.382,0,0,0,.1-.5C168.887,28.26,168.884,28.249,168.884,28.238Zm5.928,12.113a112.507,112.507,0,0,1-20.1,31.741A16.254,16.254,0,0,0,152.4,83.168,10.224,10.224,0,0,0,163.875,92.3c2.712-.252,5.354-1.893,5.8-4.717a5.8,5.8,0,0,0-1.964-5.439,7.832,7.832,0,0,1-4.353-1.5c-1.96.088-3.9,1.068-4.311,3.12a4.046,4.046,0,0,0,5.759,4.084,4.216,4.216,0,0,1-6.1-4.138,4.539,4.539,0,0,1,4.013-3.587,7.872,7.872,0,0,1,9.453-12.52,27.872,27.872,0,0,1-.586-10.545c.082-.7.187-1.4.3-2.079-.756.7-1.472,1.069-1.635.953a1.083,1.083,0,0,1-1.442-1c-.048-.753.239-1.488.638-1.6a3.654,3.654,0,0,0,3.108-2.839,12.843,12.843,0,0,0,.48-4.989,14.381,14.381,0,0,1,.623,2.164c.774-2.451,1.514-4.249,1.816-4.957C175.244,41.924,175.032,41.136,174.812,40.351Zm.688,2.46a58.949,58.949,0,0,0-1.251,6.814,1.872,1.872,0,0,1,1.307-1.071c.04-.645.1-1.29.187-1.923.088-.666.2-1.322.314-1.963C175.872,44.05,175.681,43.432,175.5,42.811Zm1.793,5.875c.012.155.029.3.045.455a1.921,1.921,0,0,1,.146.163C177.418,49.1,177.359,48.891,177.293,48.686Zm.53,1.655c0,.013,0,.025,0,.037a1.867,1.867,0,0,1-.151.735,12.464,12.464,0,0,0,1.887,4.331Q178.666,52.9,177.823,50.342Zm12.871-41.31a3.9,3.9,0,0,0,1.168-.812,4.037,4.037,0,0,0,0-5.611,3.82,3.82,0,0,0-5.485,0,3.976,3.976,0,0,0-.625.87c.092.819.185,1.639.288,2.456a3.233,3.233,0,0,1,4.673,2.913C190.713,8.911,190.7,8.97,190.694,9.032Zm-.469-.184a2.765,2.765,0,0,0-2.764-2.763,2.729,2.729,0,0,0-1.355.37c.073.574.157,1.146.234,1.72.013.015.023.032.037.046A3.829,3.829,0,0,0,189.12,9.38a3.764,3.764,0,0,0,1.068-.171A2.8,2.8,0,0,0,190.226,8.848Zm-2.764,2.761a2.758,2.758,0,0,0,2.669-2.083,4.029,4.029,0,0,1-3.73-.911c.13.967.254,1.936.395,2.9A2.655,2.655,0,0,0,187.462,11.609Zm9.955,39.5a1.382,1.382,0,1,0-1.385-1.381A1.383,1.383,0,0,0,197.416,51.11ZM315.7,33.345a.771.771,0,0,1-.079-1.078.727.727,0,0,1,1.046-.144.792.792,0,0,1,.082,1.081A.747.747,0,0,1,315.7,33.345Zm-3.433,4.739a1.046,1.046,0,0,1,1.168-1.732,1.047,1.047,0,0,1-1.168,1.732ZM156.821,9.658a1.074,1.074,0,1,1,1.05-1.073A1.06,1.06,0,0,1,156.821,9.658Zm0-1.866a.794.794,0,1,0,.778.793A.787.787,0,0,0,156.821,7.792ZM264.942,99.318a47.143,47.143,0,0,1-14.29-.137c-7.524-1.319-16.174-5.452-23.19-10.982a101.987,101.987,0,0,1-20.17-21.529,4.461,4.461,0,1,1-2.074-8.406c.1,0,.2.023.306.031a66.127,66.127,0,0,1-6.938-13.069c-.1-.128,7.245,12.371,19,19.55,11.691,8.038,25.2,5.6,26.364,5.34a5.645,5.645,0,0,1,6.331,3.934c.74,2.656-1.59,5.368-5.218,5.988-1.494.612-19.566-.089-30.5-11.3a53.512,53.512,0,0,1-4.969-5.106,4.425,4.425,0,0,1-1.672,2.632c4.34,4.553,12.491,12.278,22.3,17.771,14.914,9.56,31.329,6.3,32.577,5.529,3.183-.983,6.707.2,7.872,2.719C271.826,94.767,269.3,98.054,264.942,99.318ZM208.034,65.55a3.976,3.976,0,0,0,1.129-2.431c-1.2-1.442-2.3-2.888-3.279-4.3a4.074,4.074,0,0,0-.665-.067,3.983,3.983,0,1,0,1.793,7.522c-1.621-2.34-2.479-3.79-2.465-3.77-.034-.019,1.063,1.318,3.044,3.414A4.1,4.1,0,0,0,208.034,65.55Zm60.037,64.357a50.461,50.461,0,0,1-14.842-5.73c-7.379-4.033-15.457-10.758-22.186-18.232a157.04,157.04,0,0,1-22.25-32.157,157.428,157.428,0,0,0,26.02,28.224c7.376,6.211,15.648,11.286,22.4,13.877a49.57,49.57,0,0,0,12.676,3.276c3.777.659,6.993,2.936,7.178,5.991C277.264,128.108,273.152,130.77,268.071,129.907Z" transform="translate(24.141 0)" fill="#fff"/>
  </g>
</svg>
